<?xml version="1.0" standalone="no"?>
<!DOCTYPE svg PUBLIC "-//W3C//DTD SVG 1.1//EN" "http://www.w3.org/Graphics/SVG/1.1/DTD/svg11.dtd" >
<svg>
<metadata>
Created by FontForge 20120731 at Wed Oct 15 22:52:26 2014
 By Orthosie Webhosting
Copyright (c) 2012, Soytutype (contact@soytutype.com.ar|soytutype@gmail.com), with reserved fontname "Oleo Script"
</metadata>
<defs>
<font id="OleoScriptBold" horiz-adv-x="226" >
  <font-face 
    font-family="OleoScriptBold"
    font-weight="700"
    font-stretch="normal"
    units-per-em="1000"
    panose-1="2 0 0 0 0 0 0 0 0 0"
    ascent="800"
    descent="-200"
    x-height="436"
    cap-height="710"
    bbox="-159 -284 987 941"
    underline-thickness="50"
    underline-position="-50"
    unicode-range="U+0001-20AC"
  />
<missing-glyph horiz-adv-x="500" 
 />
    <glyph glyph-name=".notdef" horiz-adv-x="500" 
 />
    <glyph glyph-name=".null" horiz-adv-x="0" 
 />
    <glyph glyph-name="nonmarkingreturn" horiz-adv-x="333" 
 />
    <glyph glyph-name="uni0001" horiz-adv-x="267" 
 />
    <glyph glyph-name="uni0002" horiz-adv-x="185" 
 />
    <glyph glyph-name="uni0003" horiz-adv-x="355" 
 />
    <glyph glyph-name="uni0004" horiz-adv-x="47" 
 />
    <glyph glyph-name="uni0005" horiz-adv-x="282" 
 />
    <glyph glyph-name="uni0006" horiz-adv-x="282" 
 />
    <glyph glyph-name="uni0007" horiz-adv-x="213" 
 />
    <glyph glyph-name="uni0008" horiz-adv-x="173" 
 />
    <glyph glyph-name="uni0009" unicode="&#x9;" horiz-adv-x="182" 
 />
    <glyph glyph-name="uni0010" horiz-adv-x="182" 
 />
    <glyph glyph-name="uni0011" horiz-adv-x="267" 
 />
    <glyph glyph-name="uni0012" horiz-adv-x="0" 
 />
    <glyph glyph-name="uni0013" 
 />
    <glyph glyph-name="uni0014" 
 />
    <glyph glyph-name="uni0015" 
 />
    <glyph glyph-name="uni0016" 
 />
    <glyph glyph-name="uni0017" 
 />
    <glyph glyph-name="uni0018" 
 />
    <glyph glyph-name="uni0019" 
 />
    <glyph glyph-name="space" unicode=" " horiz-adv-x="200" 
 />
    <glyph glyph-name="exclam" unicode="!" horiz-adv-x="334" 
d="M58 6q-23 22 -23 60t31 66.5t74.5 28.5t67 -23.5t23.5 -60.5t-32 -65t-75 -28t-66 22zM331 667q0 -73 -47.5 -240.5t-68.5 -203.5q-31 -11 -59 -11t-48 4q26 245 26 383l-6 87q110 34 190 34q13 -16 13 -53z" />
    <glyph glyph-name="quotedbl" unicode="&#x22;" horiz-adv-x="396" 
d="M151 732q91 0 91 -58q0 -29 -30 -110t-56 -137l-62 11l19 292q26 2 38 2zM318 732q91 0 91 -58q0 -29 -30 -110t-56 -137l-62 11l19 292q26 2 38 2z" />
    <glyph glyph-name="numbersign" unicode="#" horiz-adv-x="614" 
d="M301 458q16 -2 75 -2q12 82 12 105.5t-1 27.5q76 29 125 29q5 -17 5 -45.5t-17 -115.5q64 0 110 3q3 -20 3 -44q0 -67 -62 -67q-27 0 -66 3q-3 -19 -9.5 -53t-9.5 -52q52 0 115 9q3 -39 3 -45q0 -63 -62 -63q-43 0 -70 2q-13 -86 -18 -140q-29 -21 -118 -21h-11
q1 20 25 168q-9 1 -48 1h-39q-18 -102 -22 -144q-32 -25 -106 -25h-21q3 42 29 167q-54 -3 -92 -13q-11 51 -14 108q58 9 123 9h3q3 14 10.5 44.5t11.5 51.5q-76 -4 -103 -11q-17 53 -19 109q62 7 127 7h11q13 73 13 98.5t-1 29.5q74 29 121 29q6 -17 6 -38.5t-19 -121.5z
M345 255l19 104q-10 1 -60 1h-20q-4 -18 -12.5 -50.5t-12.5 -51.5z" />
    <glyph glyph-name="dollar" unicode="$" horiz-adv-x="501" 
d="M468 178q0 -73 -64 -125.5t-156 -61.5q-6 -40 -9 -112q-39 0 -84 14l18 98q-68 8 -114 39.5t-46 59.5q14 38 57.5 83.5t81.5 47.5q51 -21 87 -155q51 2 51 58q0 41 -31.5 99t-69.5 107t-69.5 109.5t-31.5 106.5q0 73 67 118.5t154 45.5h10q6 50 8 97q37 0 82 -14l-19 -96
q43 -16 67.5 -46t24.5 -62q0 -74 -122 -172q12 -15 30 -40.5t48 -89t30 -109.5zM405 584q0 49 -64 49q-34 0 -55 -15t-21 -37q0 -31 36 -81q7 -10 15 -21q25 12 57 43.5t32 61.5z" />
    <glyph glyph-name="percent" unicode="%" horiz-adv-x="864" 
d="M825.5 332.5q34.5 -39.5 34.5 -91.5t-13 -94.5t-38 -80t-69 -60.5t-107 -23t-99 39t-36 103q0 110 61 178.5t159 68.5q73 0 107.5 -39.5zM365.5 692.5q34.5 -39.5 34.5 -91.5t-13 -94.5t-38 -80t-69 -60.5t-107 -23t-99 39t-36 103q0 110 61 178.5t159 68.5
q73 0 107.5 -39.5zM342 -12q-74 0 -124 31q46 157 154 350q110 196 165 366q56 0 132 -26l7 -3q-35 -101 -102.5 -226t-129 -249t-93.5 -243h-9zM193.5 610.5q-17.5 -65.5 -17.5 -139t24 -73.5q26 0 44 75.5t18 139t-21 63.5q-30 0 -47.5 -65.5zM653.5 250.5
q-17.5 -65.5 -17.5 -139t24 -73.5q26 0 44 75.5t18 139t-21 63.5q-30 0 -47.5 -65.5z" />
    <glyph glyph-name="ampersand" unicode="&#x26;" horiz-adv-x="766" 
d="M620 385h11t45 -14t45 -32q-13 -22 -48.5 -73t-64.5 -84q75 -84 100 -84q14 0 43 14l9 5l33 -49q-87 -80 -179 -80q-77 0 -133 60q-86 -62 -191 -62t-164 47t-59 126q0 135 193 238q-46 80 -46 150t65.5 115t155.5 45t133.5 -34.5t43.5 -80.5q0 -56 -60 -108
q-38 -33 -97 -73q29 -53 92 -149q24 39 73 123zM247 197q0 -50 25 -79.5t58 -29.5q20 0 42.5 8t34.5 16l12 9q-2 4 -21 32.5t-33 50.5q-42 66 -64 110q-54 -50 -54 -117zM397.5 616.5q-17.5 -15.5 -17.5 -50.5t30 -83q72 48 72 100q0 22 -11.5 35.5t-33.5 13.5t-39.5 -15.5z
" />
    <glyph glyph-name="quotesingle" unicode="'" horiz-adv-x="229" 
d="M141 732q91 0 91 -58q0 -29 -30 -110t-56 -137l-62 11l19 292q26 2 38 2z" />
    <glyph glyph-name="parenleft" unicode="(" horiz-adv-x="375" 
d="M243.5 212q-7.5 -80 -7.5 -163t11.5 -138t40.5 -96l-39 -39q-7 4 -18.5 11.5t-41.5 39.5t-53 72.5t-41.5 113t-18.5 171.5t32 199t76 161.5t91 106.5t76.5 64t33.5 19l31 -47q-53 -48 -91 -129t-56 -173.5t-25.5 -172.5z" />
    <glyph glyph-name="parenright" unicode=")" horiz-adv-x="403" 
d="M175.5 298q7.5 80 7.5 163t-11.5 138t-40.5 96l39 39q7 -4 18.5 -11.5t41.5 -39.5t53 -72.5t41.5 -113t18.5 -171.5t-32 -199t-76 -161.5t-91 -106.5t-76.5 -64t-33.5 -19l-31 47q53 48 91 129t56 173.5t25.5 172.5z" />
    <glyph glyph-name="asterisk" unicode="*" horiz-adv-x="420" 
d="M217 511q-45 12 -64.5 12t-51.5 -37q-20 7 -40 26t-26 44q11 30 29 49.5t30 19.5t27.5 -6.5t49.5 -27t55 -41.5q-6 58 -12 68q-11 15 -42 28l-9 4q0 21 11.5 46.5t32.5 39.5q32 0 60 -12.5t28 -38t-8 -65t-21 -66.5q55 26 59 36q11 15 13 46v10q12 5 25 5q48 0 70 -17
q10 -18 10 -34t-1 -22q-2 -34 -28 -43q-22 -9 -55.5 -14.5t-50.5 -5.5t-27 1q11 -13 28.5 -29t26.5 -19q17 -5 44 3l11 3q20 -28 20 -65q0 -14 -4 -30q-36 -27 -67 -27q-22 0 -33 15q-46 63 -56 125q-10 -12 -23 -35.5t-13 -30.5q0 -17 15 -44l5 -9q-13 -17 -36 -28.5
t-35.5 -11.5t-17.5 1q-33 29 -44 61q-2 6 -2 15t13.5 23.5t45 40t58.5 37.5z" />
    <glyph glyph-name="plus" unicode="+" horiz-adv-x="528" 
d="M310 232v-134q-37 -16 -80 -16h-16v150h-153q0 57 4 92h149v131q51 14 95 14v-145h161q0 -75 -5 -92h-155z" />
    <glyph glyph-name="comma" unicode="," horiz-adv-x="255" 
d="M203.5 116q30.5 -33 30.5 -77.5t-44 -117t-82 -111.5l-51 31q45 69 54 124l-79 54q0 40 21.5 79t55.5 63q64 -12 94.5 -45z" />
    <glyph glyph-name="hyphen" unicode="-" horiz-adv-x="423" 
d="M51 241q0 58 7 88h331q0 -55 -7 -88h-331z" />
    <glyph glyph-name="period" unicode="." horiz-adv-x="272" 
d="M62.5 11.5q-22.5 23.5 -22.5 62t30.5 66t73 27.5t65 -22.5t22.5 -60.5t-30.5 -67t-73 -29t-65 23.5z" />
    <glyph glyph-name="slash" unicode="/" horiz-adv-x="373" 
d="M396 710q-149 -367 -320 -822q-50 0 -84 34q148 391 321 825q34 -8 83 -37z" />
    <glyph glyph-name="zero" unicode="0" horiz-adv-x="617" 
d="M615 457q0 -143 -52 -257q-28 -62 -68.5 -108.5t-101.5 -75t-136 -28.5q-100 0 -154.5 75t-54.5 191q0 208 98 332t262 124q101 0 154 -74t53 -179zM293 65q37 0 68 81t46 185t15 194q0 109 -45 109q-32 0 -59 -43t-42 -107q-32 -138 -32 -278.5t49 -140.5z" />
    <glyph glyph-name="one" unicode="1" horiz-adv-x="398" 
d="M94 -7h-6q0 85 27.5 209t55 234.5t27.5 162.5q-64 -41 -108 -86q-19 10 -34 29.5t-21 33.5l-6 14l177 107q76 13 174 13q11 -27 11 -68t-26.5 -154.5t-53.5 -247t-27 -223.5q-45 -24 -190 -24z" />
    <glyph glyph-name="two" unicode="2" horiz-adv-x="531" 
d="M398 -23q-33 0 -79 22t-84.5 46t-54.5 26q-39 -35 -76 -59t-50 -24t-47.5 36t-34.5 56t36 59.5t83 39.5q16 0 58 -6q68 57 125.5 154t57.5 178q0 43 -22 67t-55 24t-69 -22.5t-65 -65.5l-60 29q27 67 98.5 120t167 53t149.5 -49t54 -121q0 -51 -29.5 -110t-76.5 -112
q-87 -98 -175 -167q105 -32 169 -32q19 0 31 10t32 46l53 -18q-14 -99 -45 -139q-31 -41 -91 -41z" />
    <glyph glyph-name="three" unicode="3" horiz-adv-x="513" 
d="M316 710q89 0 141.5 -43t52.5 -107t-47.5 -112t-120.5 -64q73 -12 118 -56t45 -114q0 -96 -83 -161t-195 -65q-88 0 -161.5 38.5t-73.5 103.5q0 51 29 77q12 2 30 2q82 0 131 -40l-13 -103q11 -11 35 -11q45 0 75 50.5t30 117t-29.5 94.5t-92.5 28l-40 -2l5 64
q63 5 98 24q71 39 71 108q0 36 -19.5 55.5t-49 19.5t-63 -22t-59.5 -62l-60 28q31 67 94 109.5t152 42.5z" />
    <glyph glyph-name="four" unicode="4" horiz-adv-x="581" 
d="M486 130q-26 0 -50 4q-9 -64 -9 -113q-50 -26 -188 -26h-13q0 53 26 176q-39 5 -90 5t-86.5 -10t-37.5 -10q-15 0 -35 22.5t-20.5 38.5t11.5 33q222 312 321 443q78 14 202 17q15 -20 15 -57t-10 -91t-31 -145t-32 -144q25 -2 46.5 -2t31.5 15l16 27l52 -19
q-19 -100 -44 -130q-27 -34 -75 -34zM142 292q12 1 40 1t94 -4q63 245 64 307q-92 -113 -198 -304z" />
    <glyph glyph-name="five" unicode="5" horiz-adv-x="515" 
d="M218 699l206 10q65 0 111 -21q6 -13 6 -36q0 -45 -25 -102l-9 -19q-61 31 -104.5 31t-188.5 -7q-12 -44 -20 -92q137 -7 222 -61t85 -161.5t-81.5 -181.5t-196.5 -74q-84 0 -151 40.5t-67 106.5q0 43 19 74q20 3 34 3q86 0 134 -48l-16 -99q16 -11 30 -11q46 0 73.5 55.5
t27.5 134t-46.5 117t-128.5 38.5l-29 2l-24 32q10 35 30.5 132t32.5 140q31 -3 76 -3z" />
    <glyph glyph-name="six" unicode="6" horiz-adv-x="585" 
d="M391 637q-46 0 -79 -65t-50 -171q54 23 108 23q83 0 139.5 -49t56.5 -142.5t-80.5 -169t-199.5 -75.5q-238 0 -238 265q0 189 99.5 323t249.5 134q84 0 136.5 -33t52.5 -102q0 -42 -30 -72q-18 -3 -29 -3q-85 0 -131 45l15 85q-2 7 -20 7zM353.5 313.5
q-13.5 26.5 -44.5 26.5t-58 -18q-9 -56 -9 -118q0 -140 47 -140q38 0 58 52.5t20 111.5t-13.5 85.5z" />
    <glyph glyph-name="seven" unicode="7" horiz-adv-x="460" 
d="M106 -7h-25q10 81 34 154q46 135 220 394q-111 9 -113 9q-85 0 -145 -32q-24 66 -24 125l5 47q49 19 131 19q35 0 103 -7.5t115.5 -7.5t103.5 8l17 -46l-46 -68q-98 -157 -150.5 -319.5t-52.5 -249.5q-12 -9 -70 -17.5t-103 -8.5z" />
    <glyph glyph-name="eight" unicode="8" horiz-adv-x="513" 
d="M231 -12q-83 0 -138.5 43t-55.5 110q0 101 163 220q-81 111 -81 182t67.5 118.5t148 47.5t131 -33t50.5 -101q0 -82 -111 -183q49 -66 72 -111t23 -85q0 -93 -81 -150.5t-188 -57.5zM157 146q0 -40 24 -61t56.5 -21t58 18.5t25.5 49.5q0 47 -75 157q-89 -70 -89 -143z
M300 582q0 -45 54 -122q27 23 44.5 56.5t17.5 62t-16.5 42t-39 13.5t-41.5 -12.5t-19 -39.5z" />
    <glyph glyph-name="nine" unicode="9" horiz-adv-x="560" 
d="M71 147q70 -63 128 -63t96 51t52 157q-57 -19 -104 -19q-96 0 -148 52t-52 135q0 107 77.5 178.5t196.5 71.5q241 0 241 -277q0 -117 -39 -217.5t-116 -164t-176 -63.5q-62 0 -115.5 30t-89.5 84zM300 360q29 0 56 18q9 56 9 116q0 140 -47 140q-26 0 -44 -28
q-34 -52 -34 -149t60 -97z" />
    <glyph glyph-name="colon" unicode=":" horiz-adv-x="341" 
d="M120.5 287.5q-22.5 23.5 -22.5 62t30.5 66t73 27.5t65 -22.5t22.5 -60.5t-30.5 -67t-73 -29t-65 23.5zM84.5 11.5q-22.5 23.5 -22.5 62t30.5 66t73 27.5t65 -22.5t22.5 -60.5t-30.5 -67t-73 -29t-65 23.5z" />
    <glyph glyph-name="semicolon" unicode=";" horiz-adv-x="341" 
d="M225.5 116q30.5 -33 30.5 -77.5t-44 -117t-82 -111.5l-51 31q45 69 54 124l-79 54q0 40 21.5 79t55.5 63q64 -12 94.5 -45zM118.5 287.5q-22.5 23.5 -22.5 62t30.5 66t73 27.5t65 -22.5t22.5 -60.5t-30.5 -67t-73 -29t-65 23.5z" />
    <glyph glyph-name="less" unicode="&#x3c;" horiz-adv-x="446" 
d="M187 278l232 -91q0 -52 -15 -100l-367 158v64l366 176q16 -47 16 -100z" />
    <glyph glyph-name="equal" unicode="=" horiz-adv-x="512" 
d="M82 152q0 53 9 92h357q0 -62 -6 -92h-360zM82 305q0 50 9 92h357q0 -55 -5 -92h-361z" />
    <glyph glyph-name="greater" unicode="&#x3e;" horiz-adv-x="430" 
d="M52 187l231 91l-231 107q0 40 20 98l362 -174v-64l-367 -158q-15 48 -15 100z" />
    <glyph glyph-name="question" unicode="?" horiz-adv-x="401" 
d="M267 283q0 -10 21 -17q3 -1 10.5 -4t13 -4.5t8.5 -2.5q-7 -31 -23 -53q-90 0 -145.5 30.5t-55.5 88.5q0 37 40 89q13 17 40 49q103 125 103 159q0 18 -32 18q-41 -71 -80 -107q-36 5 -80 40.5t-44 56t48 52.5t113 32q97 0 153 -48.5t56 -123.5q0 -30 -16.5 -65.5
t-30 -54.5t-40.5 -51q-59 -65 -59 -84zM93.5 10q-24.5 22 -24.5 58t32.5 62t77 26t65.5 -22t21 -56t-29.5 -62t-73.5 -28t-68.5 22z" />
    <glyph glyph-name="at" unicode="@" horiz-adv-x="832" 
d="M548 8q-83 -31 -162 -31t-147 27.5t-109 73.5q-85 95 -85 226q0 81 31 155.5t86 131.5t138 90.5t180 33.5q155 0 247.5 -79t92.5 -202q0 -71 -28.5 -129t-69.5 -91q-84 -66 -147 -66q-48 0 -73 45q-65 -45 -114 -45t-88.5 38.5t-39.5 124.5q0 111 57 177.5t152 66.5
q65 0 164 -37q-28 -120 -28 -267q0 -25 9 -25q12 0 32 20t38.5 69.5t18.5 103t-12 91t-37 69.5q-52 68 -171 68q-70 0 -128 -28t-95 -75q-77 -96 -77 -217t56.5 -199t161.5 -78q63 0 117 26q20 -28 28 -58zM428 232q11 0 25.5 9.5t20.5 19.5q11 159 26 220q-12 8 -27 8
q-35 0 -53.5 -47t-18.5 -128.5t27 -81.5z" />
    <glyph glyph-name="A" unicode="A" horiz-adv-x="604" 
d="M95 13q-13 -22 -49.5 -22t-75.5 27q30 84 123 278.5t124 292.5q3 12 3 21q0 19 -22 46l-7 10l4 20q89 24 215 24l73 -4q13 -15 20 -46q17 -75 17 -400q0 -161 36 -161q14 0 47 10l10 3l21 -57q-41 -31 -96 -49t-108 -18q-102 0 -102 151q0 52 1 77q-19 4 -74 4t-95 -11
q-37 -99 -65 -196zM333 300q5 87 5 175t-10 128q-10 0 -14 -2q-22 -67 -118 -301h137z" />
    <glyph glyph-name="B" unicode="B" horiz-adv-x="631" 
d="M366 -12q-80 0 -160 28q-58 -22 -138 -22q-13 0 -27 2q0 60 55 294.5t55 287.5q0 15 -11.5 36t-23.5 34l-11 13l4 25q26 6 115.5 15t155.5 9q107 0 174.5 -36.5t67.5 -116t-49 -124.5t-123 -61q69 -7 116 -49t47 -117q0 -95 -70.5 -156.5t-176.5 -61.5zM333 338
q-19 0 -41 -3q-39 -171 -50 -248q24 -13 70.5 -13t76 48.5t29.5 108t-21 83.5t-64 24zM319 411q56 0 85 55t29 114.5t-50 59.5l-31 -4q-1 -39 -42 -225h9z" />
    <glyph glyph-name="C" unicode="C" horiz-adv-x="578" 
d="M287 -12q-105 0 -172 78t-67 203t43.5 223.5t124 158t178.5 59.5t160 -39t62 -99.5t-34 -96.5q-40 0 -92 16t-78 39l19 97q-18 10 -44 10q-56 0 -99.5 -101.5t-43.5 -244.5q0 -97 31.5 -144.5t80.5 -47.5q70 0 154 74l47 -47q-10 -15 -42 -43.5t-61.5 -46.5t-75 -33
t-91.5 -15z" />
    <glyph glyph-name="D" unicode="D" horiz-adv-x="681" 
d="M480.5 29q-67.5 -41 -138 -41t-129.5 26q-51 -19 -109.5 -19t-62.5 1q0 69 55 297.5t55 277.5q0 19 -11.5 42t-23.5 36l-11 13l3 23q30 8 117.5 16.5t156.5 8.5q297 0 297 -260q0 -173 -89 -313q-42 -67 -109.5 -108zM390 639q-18 0 -39 -3q-3 -58 -51 -266.5t-59 -285.5
q18 -9 45 -9q52 0 93 48t63 120q43 146 43 266q0 71 -21.5 100.5t-73.5 29.5z" />
    <glyph glyph-name="E" unicode="E" horiz-adv-x="545" 
d="M267 -13q-125 0 -191 81q-37 46 -37 118.5t60 127.5t142 64q-57 15 -91.5 51.5t-34.5 92.5q0 87 73.5 137.5t167.5 50.5t158 -38.5t64 -99.5q0 -43 -20 -75l-7 -10q-41 0 -88 12.5t-71 32.5l10 102q-15 7 -32 7q-62 0 -62 -126q0 -68 44 -96q31 -20 75 -28l-8 -58
q-72 -1 -128.5 -39.5t-56.5 -107.5q0 -44 30 -65.5t71.5 -21.5t87.5 21t79 53l45 -45q-43 -58 -118 -99.5t-162 -41.5z" />
    <glyph glyph-name="F" unicode="F" horiz-adv-x="517" 
d="M254 705l240 -6q51 0 79 2q3 -18 3 -45q0 -53 -63 -53l-153 12q-15 0 -25 -1q-2 -38 -42 -222q57 5 114 5t83 -9q-4 -46 -19 -74l-5 -10q-28 9 -85.5 9t-105.5 -4q-37 -179 -37 -275v-14q-53 -26 -186 -26h-11q0 88 44 296t53 291q0 20 -11 41.5t-22 33.5l-11 11l2 23
q74 15 158 15z" />
    <glyph glyph-name="G" unicode="G" horiz-adv-x="610" 
d="M229 -224q-57 0 -95.5 24.5t-38.5 72.5q0 28 13 49t27 32t25.5 19t30.5 16t31 12.5t32.5 10.5t29.5 8.5t28 6.5t21 5q5 15 10 35q-42 -13 -79 -13q-89 0 -152.5 66.5t-63.5 190.5q0 101 43 191.5t126.5 149t182.5 58.5t163.5 -45.5t64.5 -115.5q0 -32 -17 -69
q-14 -2 -36 -2q-94 0 -144 37v109q-16 13 -41 13q-60 0 -103 -89t-43 -216q0 -175 91 -175q52 0 99 54t72 136l66 -10q-28 -278 -117.5 -419.5t-225.5 -141.5zM178 -111q0 -10 8 -17.5t23 -7.5q57 0 101 91l1 3q-66 -10 -99.5 -28.5t-33.5 -40.5z" />
    <glyph glyph-name="H" unicode="H" horiz-adv-x="712" 
d="M438 14q-31 26 -31 75t42 221q-30 7 -72 7t-89 -12q-47 -203 -49 -282q-44 -26 -179 -26h-19q0 57 57 288t57 302q0 17 -10.5 37.5t-21.5 32.5l-11 12l2 20q67 21 224 21q16 -22 16 -68t-45 -245h160q37 157 37 249q0 18 -1 29q98 35 189 35q7 -7 7 -50.5t-49.5 -260.5
t-49.5 -279q0 -21 13 -21q25 0 54 13l22 -56q-36 -31 -85.5 -49.5t-93 -18.5t-74.5 26z" />
    <glyph glyph-name="I" unicode="I" horiz-adv-x="361" 
d="M245 127q0 -28 13 -28q22 0 54 13l22 -56q-92 -68 -178 -68q-50 0 -79.5 28.5t-29.5 80.5t51 235.5t56 255.5q0 17 -11 37t-21 32l-11 12l2 20q63 21 223 21q16 -30 16 -64q0 -58 -53.5 -253t-53.5 -266z" />
    <glyph glyph-name="J" unicode="J" horiz-adv-x="437" 
d="M195 709l213 -2l93 2q2 -22 2 -47t-10.5 -34.5t-38 -9.5t-44.5 1q-38 -391 -75 -493q-32 -90 -87 -120q-34 -19 -81.5 -19t-100.5 27.5t-84 64.5l36 51q12 -9 37.5 -21.5t44 -12.5t34.5 20q36 47 63 254q19 142 19 239v17q-69 -2 -104 -13q-14 42 -16 85q22 11 99 11z
" />
    <glyph glyph-name="K" unicode="K" horiz-adv-x="652" 
d="M237 20q-48 -26 -140 -26q-29 0 -56 4q0 53 55.5 278t55.5 303q0 20 -10 42.5t-20 34.5l-11 13l4 20q71 21 223 21q14 -28 14 -71t-42 -238h6q72 0 108.5 65.5t56.5 216.5q89 27 176 27q2 -8 1 -43.5t-18.5 -94.5t-62.5 -121.5t-110 -95.5q76 -262 118 -262q16 0 51 12
l11 4l24 -55q-93 -66 -188 -66t-125 98q-30 100 -45 235h-21q-55 -244 -55 -301z" />
    <glyph glyph-name="L" unicode="L" horiz-adv-x="524" 
d="M387 -24q-42 0 -122.5 44t-93.5 47q-60 -79 -112 -79q-14 0 -42 39t-28 73q0 15 31 37.5t71 31.5q27 63 53.5 191t26.5 225q0 16 -10.5 36t-20.5 32l-11 12l3 20q55 25 228 25q16 -25 16 -85t-53 -208t-106 -257q100 -26 191 -26q21 0 34.5 10t29.5 42l55 -19
q-16 -95 -48.5 -143t-91.5 -48z" />
    <glyph glyph-name="M" unicode="M" horiz-adv-x="997" 
d="M53 -6h-12q0 58 56 307t56 275q0 42 -31 80l-10 13l3 20q59 20 216 20q16 -36 17 -85q117 86 200 86q95 0 113 -82q113 82 197 82q57 0 93 -31.5t36 -91t-43.5 -226t-43.5 -236.5q0 -26 11 -26q21 0 51 12l21 -57q-93 -66 -184 -66q-43 0 -69 26t-26 76.5t41.5 220
t41.5 206.5t-9 49.5t-35 12.5t-82 -38q-7 -46 -31 -149q-63 -263 -63 -373q-49 -26 -169 -26h-27q0 92 47 288t47 235t-8.5 51t-35 12t-83.5 -39q-9 -50 -37 -166q-65 -271 -65 -354q-44 -26 -183 -26z" />
    <glyph glyph-name="N" unicode="N" horiz-adv-x="689" 
d="M58 -6h-17q0 60 56 306t56 285q0 17 -10.5 38t-20.5 33l-10 13l3 20q62 21 216 21q18 -38 18 -86v-2q120 88 210 88q53 0 87 -31.5t34 -90t-46 -235.5t-46 -215.5t13 -38.5q18 0 54 13l21 -57q-98 -67 -182 -67q-48 0 -73.5 25.5t-25.5 84.5t43.5 224.5t43.5 205.5
q0 51 -45 51q-33 0 -99 -41q-9 -48 -38 -166q-64 -269 -64 -352q-44 -26 -178 -26z" />
    <glyph glyph-name="O" unicode="O" horiz-adv-x="675" 
d="M659 536q14 -45 14 -107t-21.5 -138t-64 -145.5t-117.5 -113.5t-171 -44q-117 0 -184 79t-67 199t45.5 219.5t130 162t188.5 62.5q70 0 122.5 -24t81.5 -64.5t43 -85.5zM281 78q18 -14 52.5 -14t65 40.5t47.5 104.5q32 126 32 261q0 164 -80 164q-38 0 -68.5 -35.5
t-48.5 -92.5q-37 -116 -37 -249q0 -149 37 -179z" />
    <glyph glyph-name="P" unicode="P" horiz-adv-x="583" 
d="M317 263q-28 0 -41 1q-40 -182 -40 -244q-56 -26 -147 -26q-25 0 -48 3q0 63 55 292.5t55 284.5q0 17 -11.5 39t-23.5 35l-11 14l4 24q38 7 128.5 15.5t166.5 8.5q112 0 166 -46t54 -124q0 -121 -77.5 -199t-229.5 -78zM315 349q56 0 86.5 64t30.5 154q0 73 -48 73
l-32 -4q0 -39 -56 -287h19z" />
    <glyph glyph-name="Q" unicode="Q" horiz-adv-x="670" 
d="M515 -224q-42 0 -129.5 53.5t-115.5 53.5q-62 -84 -97 -84q-18 0 -46.5 34.5t-28.5 72.5q0 9 15.5 24t49.5 28.5t78.5 13.5t144.5 -24t153 -24q12 0 19 2q19 7 48 48l57 -19q-30 -179 -148 -179zM659 536q14 -45 14 -107t-21.5 -138t-64 -145.5t-117.5 -113.5t-171 -44
q-117 0 -184 79t-67 199t45.5 219.5t130 162t188.5 62.5q70 0 122.5 -24t81.5 -64.5t43 -85.5zM281 78q18 -14 52.5 -14t65 40.5t47.5 104.5q32 126 32 261q0 164 -80 164q-38 0 -68.5 -35.5t-48.5 -92.5q-37 -116 -37 -249q0 -149 37 -179z" />
    <glyph glyph-name="R" unicode="R" horiz-adv-x="651" 
d="M237 19q-59 -26 -144 -26q-29 0 -52 5q0 66 56.5 297.5t56.5 291.5q0 24 -36 64l-11 13l3 22q136 24 302 24q100 0 158 -38.5t58 -112t-40 -134t-114 -94.5q33 -112 63 -175t49 -63q16 0 50 12l12 4l24 -54q-88 -67 -185.5 -67t-127.5 98q-26 86 -42 213h-35
q-45 -210 -45 -280zM323 386q32 0 55.5 20t35.5 52q22 63 22 122t-53 59q-16 0 -32 -3q-1 -31 -49 -248q7 -2 21 -2z" />
    <glyph glyph-name="S" unicode="S" horiz-adv-x="508" 
d="M473 183q0 -83 -79.5 -139t-184.5 -56q-82 0 -138.5 35t-56.5 67q16 39 61 84t83 47q25 -11 46.5 -54.5t34.5 -100.5q54 2 54 61q0 40 -29.5 96.5t-64.5 105t-64.5 108.5t-29.5 105q0 74 68 121t151.5 47t130 -36t46.5 -83q0 -76 -128 -174q59 -73 89 -170q11 -35 11 -64
zM422 586q0 47 -61 47q-35 0 -56.5 -15t-21.5 -38t18.5 -55.5t29.5 -45.5q25 12 58 44t33 63z" />
    <glyph glyph-name="T" unicode="T" horiz-adv-x="529" 
d="M135 -7h-23q0 83 47 303t52.5 263.5t6.5 65.5q-94 -2 -150 -29q-29 33 -36 97q49 17 168 17l323 -12q23 0 73 2q4 -32 4 -54q0 -47 -59 -47q-12 0 -132 15q-3 -32 -51.5 -260t-48.5 -335q-44 -26 -174 -26z" />
    <glyph glyph-name="U" unicode="U" horiz-adv-x="705" 
d="M306 120q41 0 104 36q2 14 46 205.5t44 272.5q0 30 -1 41q100 35 191 35q6 -7 6 -34q0 -60 -49.5 -280t-49.5 -258.5t14 -38.5q9 0 54 13l21 -56q-94 -68 -181 -68q-41 0 -67 23t-32 62q-123 -85 -211 -85q-57 0 -93.5 31.5t-36.5 86t43 224.5t43 258q0 17 -10.5 37
t-20.5 32l-11 12l3 20q63 21 217 21q19 -26 19 -88t-43 -239t-43 -213q0 -50 44 -50z" />
    <glyph glyph-name="V" unicode="V" horiz-adv-x="603" 
d="M95 128q0 40 17.5 164t17.5 192t-6 92q-10 34 -40 78l-10 13l4 20q96 20 244 20q17 -34 17 -83q0 -96 -25 -252t-25 -183q0 -57 26 -57q30 0 76 51.5t83.5 130t42.5 144.5l-107 72q8 58 29 101.5t40 60.5t30 17q64 0 100 -37.5t36 -87.5q0 -75 -38.5 -178t-97.5 -195.5
t-138 -157.5t-144.5 -65t-98.5 39t-33 101z" />
    <glyph glyph-name="W" unicode="W" horiz-adv-x="920" 
d="M145.5 28.5q-33.5 40.5 -33.5 102.5t8 160t8 181t-16 122q-7 15 -42 57l-13 15l4 20q88 23 240 23q25 -29 25 -114t-12 -203.5t-12 -172.5t8 -71t26 -17t47 19.5t46 41.5q0 6 14.5 129.5t14.5 204.5t-19 143q87 40 209 41q17 -36 17 -110t-25.5 -229t-25.5 -183
q0 -56 28.5 -56t73 50t81 128.5t40.5 147.5l-113 76q9 90 64 152q12 13 28 23q72 0 109 -38t37 -84q0 -82 -37 -186.5t-94.5 -195.5t-136 -154t-153.5 -63q-40 0 -71 26t-42 79q-100 -105 -192 -105q-57 0 -90.5 40.5z" />
    <glyph glyph-name="X" unicode="X" horiz-adv-x="627" 
d="M534 681q18 28 47 28t82 -45q-98 -126 -241 -282q76 -227 106 -266q13 -17 24 -17q21 0 50 11l9 3l23 -54q-11 -8 -29 -20t-65.5 -31.5t-93.5 -19.5t-77.5 25t-50.5 82t-47 147q-79 -103 -155 -236q-15 -18 -34 -18q-32 0 -90 45q50 88 248 302q-56 171 -99 249
q-18 33 -65 70l3 22q101 27 209 31q34 -18 51 -67l52 -164q68 87 143 205z" />
    <glyph glyph-name="Y" unicode="Y" horiz-adv-x="670" 
d="M303.5 -215q-33.5 -9 -74 -9t-74 27t-33.5 66t19.5 66.5t56.5 46.5q65 34 164 55q7 16 23 73q-40 -21 -100.5 -39t-107.5 -18t-79.5 31.5t-32.5 87t36.5 202t36.5 209.5q0 19 -10 40.5t-20 34.5l-9 12l3 20q62 20 214 20q19 -33 19 -88.5t-38 -212.5t-38 -186
q0 -50 35 -50q48 0 115 36q33 140 56 275t23 196q32 13 86 21t89 8h22q0 -77 -41 -271q-15 -67 -43.5 -198.5t-65 -214t-74 -128t-81 -74.5t-77 -38zM196 -113q0 -22 29 -22t64 33.5t50 68.5q-58 -9 -100.5 -31.5t-42.5 -48.5z" />
    <glyph glyph-name="Z" unicode="Z" horiz-adv-x="580" 
d="M504.5 -7q-27.5 -18 -70 -18t-141 41.5t-146.5 41.5q-9 -8 -23 -26q-31 -44 -47 -44t-38 16.5t-37 36.5q38 75 103 150.5t142 163t133 175.5q-89 7 -144 7q-82 0 -124 -25l-14 -8q-8 17 -20 60.5t-12 72.5t5 47q61 27 122.5 27t151 -12t133 -12t95.5 11l23 -51
q-64 -102 -184.5 -237.5t-170.5 -205.5q39 -3 122 -26t107 -23q35 0 66 46l51 -20q-16 -83 -35.5 -126.5t-47 -61.5z" />
    <glyph glyph-name="bracketleft" unicode="[" horiz-adv-x="394" 
d="M222 -133q0 -9 66 -30l21 -7l-8 -53q-14 -1 -26 -1q-114 0 -193 14q-17 23 -19 41q60 589 99 859q2 16 15.5 30t28.5 14q85 0 211 -21l-4 -59q-97 -2 -101 -21q-5 -24 -24 -153.5t-26 -192t-15 -131.5t-13 -109q-12 -111 -12 -180z" />
    <glyph glyph-name="backslash" unicode="\" horiz-adv-x="378" 
d="M9 710q42 27 83 37q173 -434 321 -825q-34 -34 -84 -34q-171 455 -320 822z" />
    <glyph glyph-name="bracketright" unicode="]" horiz-adv-x="426" 
d="M210 643q0 9 -65 30l-22 7l8 53q14 1 26 1q114 0 193 -14q17 -23 19 -41q-60 -589 -99 -859q-2 -16 -15.5 -30t-28.5 -14q-85 0 -211 21l4 59q97 2 101 21q5 24 24 153.5t26 192t15 131.5t13 109q12 111 12 180z" />
    <glyph glyph-name="asciicircum" unicode="^" horiz-adv-x="471" 
d="M453 291q-24 -7 -57.5 -7t-73.5 4l-85 235l-88 -235q-40 -4 -74 -4l-57 4q157 354 172 386h95q22 -51 53 -124q66 -153 115 -259z" />
    <glyph glyph-name="underscore" unicode="_" horiz-adv-x="614" 
d="M49 0q0 59 3 81h514q0 -65 -3 -81h-514z" />
    <glyph glyph-name="grave" unicode="`" horiz-adv-x="636" 
d="M230 696q46 0 259 -149l-26 -48q-146 52 -309 91q36 106 76 106z" />
    <glyph glyph-name="a" unicode="a" horiz-adv-x="531" 
d="M482 250.5q-15 -89.5 -15 -125t11 -35.5l50 14l18 -50q-32 -25 -81.5 -45.5t-87.5 -20.5q-65 0 -82 56q-79 -56 -139.5 -56t-93.5 44t-33 126q0 113 58 199t153 86q52 0 106 -29q8 18 13 26q72 0 159 -35q-21 -65 -36 -154.5zM224 107q7 -13 26 -13t37 15q4 116 38 243
q-15 9 -34.5 9t-35 -22t-23.5 -55q-15 -63 -15 -113.5t7 -63.5z" />
    <glyph glyph-name="b" unicode="b" horiz-adv-x="515" 
d="M327 692q0 -73 -49 -284q58 35 107 35t86 -41t37 -149.5t-59.5 -186.5t-146.5 -78q-52 0 -103 28q-100 -24 -169 -24q-5 3 -5 34q0 73 58.5 313t58.5 326q0 22 -2 42q97 27 181 27q6 -10 6 -42zM296 343q-14 0 -36 -11q-43 -185 -50 -249q18 -9 33 -9q34 0 55.5 73
t21.5 134.5t-24 61.5z" />
    <glyph glyph-name="c" unicode="c" horiz-adv-x="424" 
d="M282 376q-31 0 -53 -55t-22 -111q0 -123 71 -123q45 0 102 43l32 -44q-42 -46 -100.5 -72t-116.5 -26q-78 0 -126.5 47.5t-48.5 143.5q0 116 71.5 190t187.5 74q75 0 118 -30.5t43 -77t-28 -80.5q-33 0 -71.5 12.5t-61.5 31.5l15 75q-6 2 -12 2z" />
    <glyph glyph-name="d" unicode="d" horiz-adv-x="537" 
d="M377 -12q-61 0 -80 48q-74 -48 -135 -48t-97 41.5t-36 131.5q0 120 61 201t155 81q48 0 93 -21q29 150 29 236q0 27 -4 50q93 26 180 26q9 -14 9 -66t-41 -268.5t-41 -263t13 -46.5l44 14l17 -51q-88 -65 -167 -65zM247 89q17 0 39 12v1q0 62 39 255q-22 6 -31 6
q-37 0 -57 -65.5t-20 -137t30 -71.5z" />
    <glyph glyph-name="e" unicode="e" horiz-adv-x="429" 
d="M20 181q0 124 75.5 193t186.5 69q77 0 123.5 -33.5t46.5 -89.5q0 -39 -25 -71t-61 -49q-72 -34 -132 -42l-25 -4q11 -66 66 -66q24 0 53 10.5t46 21.5l17 10l32 -43l-11 -11q-6 -6 -28.5 -23.5t-47 -30.5t-62.5 -23.5t-76 -10.5q-85 0 -131.5 49.5t-46.5 143.5z
M263 267.5q29 43.5 29 73t-17 29.5q-25 0 -46 -39t-24 -111q29 4 58 47.5z" />
    <glyph glyph-name="f" unicode="f" horiz-adv-x="326" 
d="M359 354l-88 7q-9 -169 -40 -323t-61 -193q-50 1 -97 11.5t-64 20.5q37 126 53 219t32 261l-65 -7q-4 19 -4 38.5t5 42.5h71q15 146 43 201q35 68 84 88q30 13 76 13t77.5 -26.5t31.5 -71t-40.5 -102.5t-98.5 -102h103q0 -45 -18 -77zM329 658q-42 0 -53 -147
q35 28 56.5 61.5t21.5 59.5t-25 26z" />
    <glyph glyph-name="g" unicode="g" horiz-adv-x="503" 
d="M282 43q-70 -38 -125 -38t-91.5 43.5t-36.5 129.5q0 115 62.5 190t149.5 75q42 0 95 -23q62 19 141 19h17q5 -10 5 -44.5t-12.5 -135.5t-27.5 -169q-31 -144 -99 -229t-167 -85q-50 0 -81 22t-31 56t16.5 56.5t47.5 37.5q53 26 130 43zM287 362q-35 0 -53.5 -60
t-18.5 -130t33 -70q15 0 42 14q12 130 25 240q-15 6 -28 6zM177 -150q19 0 43.5 19t40.5 62q-109 -19 -109 -58q2 -23 25 -23z" />
    <glyph glyph-name="h" unicode="h" horiz-adv-x="544" 
d="M329 681q0 -70 -51 -288q86 49 135.5 49t73.5 -26.5t24 -66t-22 -124t-22 -110.5t8 -26l52 14l18 -50q-31 -23 -85.5 -44t-96.5 -21q-81 0 -81 92q0 42 21 124t21 103.5t-15 21.5q-21 0 -51 -20q-45 -191 -45 -266l1 -24q-102 -27 -183 -27q-6 3 -6 32q0 62 59.5 307
t59.5 330q0 26 -4 46q97 27 182 27q7 -17 7 -53z" />
    <glyph glyph-name="i" unicode="i" horiz-adv-x="300" 
d="M244 238.5q-25 -92.5 -25 -120.5t11 -28t40 10l9 4l18 -50q-34 -26 -84.5 -46t-91.5 -20t-64.5 23t-23.5 66.5t24.5 133t24.5 113.5q0 37 -26 70l-8 11l3 17q52 16 202 16q16 -18 16 -62.5t-25 -137zM123.5 540q-25.5 24 -25.5 61.5t31.5 63t76.5 25.5t70 -21t25 -59
t-30.5 -66t-76 -28t-71 24z" />
    <glyph glyph-name="j" unicode="j" horiz-adv-x="298" 
d="M11 -224q-92 0 -170 80l32 43q42 -27 77.5 -27t61 46t51.5 192t26 216q0 15 -10 34.5t-20 31.5l-10 12l2 16q70 18 208 18q17 -17 17 -66.5t-18 -164.5t-40 -200q-61 -231 -207 -231zM139.5 540q-25.5 24 -25.5 61.5t31.5 63t76.5 25.5t70 -21t25 -59t-30.5 -66t-76 -28
t-71 24z" />
    <glyph glyph-name="k" unicode="k" horiz-adv-x="538" 
d="M143 661q0 26 -5 46q99 27 180 27q10 -12 10 -53q0 -73 -45 -280q80 42 141.5 42t94 -25t32.5 -70q0 -87 -129 -124q32 -138 62 -138l48 13l22 -49q-25 -20 -77 -41t-100 -21t-73 36t-32 94t-7 130q48 12 76 34.5t28 45t-24 22.5q-19 0 -44.5 -11t-37.5 -21
q-54 -228 -54 -305q-77 -17 -183 -17q-1 8 -1 19q0 52 59 304.5t59 341.5z" />
    <glyph glyph-name="l" unicode="l" horiz-adv-x="297" 
d="M216 8q-52 -20 -94.5 -20t-69.5 24.5t-27 70.5t50.5 256.5t50.5 312.5q0 22 -6 56q94 26 182 26q9 -16 9 -52q0 -68 -50.5 -296.5t-50.5 -263.5t12 -35q10 0 43 13l11 5l24 -49q-32 -28 -84 -48z" />
    <glyph glyph-name="m" unicode="m" horiz-adv-x="790" 
d="M60 -6h-25q0 71 27.5 198.5t27.5 141.5t-9 31t-18 26l-9 9l2 15q58 19 205 19q11 -23 15 -49q87 57 147 57q32 0 54.5 -17t31.5 -45q83 62 152 62q45 0 70.5 -27.5t25.5 -66t-22 -124.5t-22 -110.5t8 -24.5l52 13l18 -50q-30 -24 -82.5 -44t-94.5 -20q-86 0 -86 87
q0 37 21 126t21 108.5t-15 19.5q-21 0 -45 -17q-3 -15 -16 -72q-28 -128 -28 -227q-46 -17 -179 -17q-3 11 -3 52t22 145t22 120t-14 16q-17 0 -44 -16q-3 -17 -19 -87q-34 -147 -34 -214q-47 -18 -157 -18z" />
    <glyph glyph-name="n" unicode="n" horiz-adv-x="554" 
d="M52 -6h-17q0 62 28.5 188t28.5 145t-9 37t-18 27l-9 9l2 15q59 19 206 19q10 -23 14 -48q91 56 153 56q42 0 66 -27.5t24 -66t-22 -123.5t-22 -110.5t7 -25.5l53 14l18 -50q-32 -24 -83 -44.5t-94 -20.5q-86 0 -86 88q0 38 21 124t21 107.5t-14 21.5q-18 0 -48 -20
q-4 -18 -20 -87q-32 -145 -32 -209q-49 -19 -168 -19z" />
    <glyph glyph-name="o" unicode="o" horiz-adv-x="446" 
d="M351 63q-65 -75 -152 -75t-133 49t-46 135q0 115 64 191.5t177 76.5l40 -4q24 7 46 7q89 0 95 -131q42 2 80 13l14 4q7 -7 10 -42l1 -11q-45 -23 -110 -36q-21 -102 -86 -177zM208 188q0 -100 47 -100q33 0 67.5 42t47.5 102q-102 0 -102 98q0 17 3 35q-10 0 -15 -3
q-17 -17 -32.5 -73t-15.5 -101z" />
    <glyph glyph-name="p" unicode="p" horiz-adv-x="507" 
d="M1 -224q-8 12 -8 54.5t36 225.5t36 270q0 19 -9.5 38t-19.5 28l-9 10l2 15q62 19 205 19q8 -15 13 -39q63 45 120.5 45t95 -42.5t37.5 -122.5q0 -126 -53 -207.5t-154 -81.5q-52 0 -96 18q-20 -116 -20 -199q-72 -26 -176 -31zM241 72q26 0 45 39q34 70 34 172
q0 58 -29 58q-17 0 -42 -11q-4 -85 -38 -253q17 -5 30 -5z" />
    <glyph glyph-name="q" unicode="q" horiz-adv-x="518" 
d="M233 -224h-11q-1 9 -1 30q0 65 35 214q-54 -32 -105.5 -32t-86.5 40t-35 120q0 135 63.5 215t141.5 80q59 0 102 -23q85 21 162 21q8 -11 8 -44q0 -65 -50.5 -298.5t-50.5 -291.5q-112 -31 -172 -31zM291 361q-34 0 -54 -73t-20 -150q0 -48 23 -48q18 0 35 8
q43 181 45 258q-15 5 -29 5z" />
    <glyph glyph-name="r" unicode="r" horiz-adv-x="392" 
d="M49 -6h-8q-3 14 -3 43.5t24.5 152.5t24.5 140q0 32 -27 60l-9 10l2 15q60 19 199 19q13 -25 16 -59q60 68 105 68q34 0 51.5 -23.5t20.5 -77.5q-5 -7 -14 -17.5t-39 -29t-63 -22.5q-1 0 -13.5 22t-19.5 22t-33 -20l-11 -57q-29 -143 -29 -192l1 -37q-44 -17 -175 -17z
" />
    <glyph glyph-name="s" unicode="s" horiz-adv-x="385" 
d="M368 135q0 -62 -57.5 -104.5t-134.5 -42.5t-126.5 26t-49.5 49.5t30.5 60t62.5 42.5q46 -25 83 -111q29 0 29 19q0 14 -8 26t-12 19t-14 19.5t-15 18.5q-25 30 -45 55q-48 60 -48 105.5t29 74.5q50 51 147 51q61 0 97 -23.5t36 -70t-55 -106.5q51 -59 51 -108zM313 352
q0 15 -13 23t-31 8t-27.5 -8.5t-9.5 -22.5t43 -62q14 10 26 28.5t12 33.5z" />
    <glyph glyph-name="t" unicode="t" horiz-adv-x="338" 
d="M372 354l-88 7q-45 -210 -45 -254q0 -20 10 -20q16 0 55 18l24 -48q-34 -31 -82 -50t-93 -19t-72.5 24t-27.5 67.5t24 139t31 138.5q-15 -1 -68 -7q-4 21 -4 39.5t5 41.5h77q4 54 4 80t-2 48q97 32 185 32q7 -19 7 -52t-15 -108h92q0 -41 -17 -77z" />
    <glyph glyph-name="u" unicode="u" horiz-adv-x="542" 
d="M61.5 219.5q26.5 96.5 26.5 118t-36 63.5l2 15q91 20 213 20q8 -19 8 -56t-27.5 -139.5t-27.5 -117.5q0 -29 25 -29q17 0 43 13q3 16 18 84q35 151 35 226q46 20 157 20h27q0 -45 -26.5 -176t-27 -151t8.5 -20l49 13l18 -50q-29 -23 -84 -44t-97 -21q-62 0 -77 50
q-83 -50 -160 -50q-48 0 -71 25.5t-23 67.5t26.5 138.5z" />
    <glyph glyph-name="v" unicode="v" horiz-adv-x="427" 
d="M158 442q50 0 70 -25t20 -66.5t-15.5 -124.5t-15.5 -109.5t14 -26.5q24 0 63 45.5t51 89.5l-74 71q4 42 18 78.5t25 51.5l12 16q121 0 121 -95q0 -68 -40 -151t-109 -145.5t-141 -62.5q-108 0 -108 120q0 35 6.5 112t6.5 112t-38 77l4 15q8 2 15.5 3.5t17 3.5t21 4
t24.5 3q29 4 52 4z" />
    <glyph glyph-name="w" unicode="w" horiz-adv-x="660" 
d="M49 101l10 237q0 27 -35 70l3 16q8 2 15 3.5t16.5 4t21 4.5t23.5 4q28 3 52 3q91 0 91 -96q0 -37 -15 -118.5t-15 -110.5t15 -29q23 0 56 26q1 16 9 97.5t8 121t-6 69.5q23 12 80 22t96 10q9 -16 9 -55.5t-17 -135.5t-17 -125t15 -29q26 0 63.5 47t49.5 87l-73 72
q4 41 18 77.5t26 52.5l11 16q62 0 91.5 -25t29.5 -69q0 -68 -41.5 -152t-110.5 -146t-137 -62q-33 0 -58.5 17t-37.5 44q-73 -60 -151 -60q-95 0 -95 112z" />
    <glyph glyph-name="x" unicode="x" horiz-adv-x="416" 
d="M295 237q43 -147 72 -147q13 0 45 15l22 -49q-9 -8 -24 -19t-58.5 -30t-82.5 -19t-61.5 16t-37.5 58q-6 14 -23 64q-38 -45 -73 -138q-22 0 -54 10.5t-50 23.5q61 101 153 176q-34 103 -54 142q-8 20 -48 60l3 15q71 19 187 23q10 -3 23 -20.5t20 -40.5l20 -70
q18 27 25 41l10 20q10 20 12 29q6 26 13 44q42 -4 83 -26l13 -7q-49 -93 -135 -171z" />
    <glyph glyph-name="y" unicode="y" horiz-adv-x="500" 
d="M499 436h8q-5 -26 -17 -112q-27 -196 -60 -304.5t-93 -176t-158 -67.5q-43 0 -74.5 21.5t-31.5 55.5t16.5 57t48.5 38q50 25 129 43q2 8 4.5 26.5t3.5 22.5q-78 -42 -150 -42q-48 0 -71 25.5t-23 63.5t22 134.5t22 133.5t-5 55q118 25 183 25q8 -14 8 -49t-22.5 -136.5
t-22.5 -119.5q0 -31 30 -31q17 0 39 9q8 51 22.5 155.5t20.5 143.5q26 12 78.5 20.5t92.5 8.5zM144 -127q2 -23 23.5 -23t46 21t39.5 60q-109 -19 -109 -58z" />
    <glyph glyph-name="z" unicode="z" horiz-adv-x="409" 
d="M137 440l205 -5q35 0 65 3l9 -34q-145 -168 -207 -254q99 -26 125 -26.5t44 41.5l43 -15q-18 -176 -115 -176q-34 0 -92.5 33t-75.5 39q-48 -51 -71.5 -51t-51.5 27.5t-28 51.5t35.5 59t75.5 35q10 0 30 -2q59 55 104 145q-122 0 -184 -36q-12 48 -12 83t2 61
q16 21 99 21z" />
    <glyph glyph-name="braceleft" unicode="{" horiz-adv-x="468" 
d="M222 390l-3 206q0 65 38 102t101.5 37t128.5 -27l-8 -50h-8q-59 0 -71 -14t-20 -72t-14.5 -139t-10.5 -108q-7 -52 -69 -74q23 -8 36.5 -28t13.5 -50.5t-18 -143.5t-18 -133t3 -27q5 -14 24 -23.5t36 -11.5l17 -3l-6 -50q-29 -5 -67 -5q-177 0 -177 112q0 36 34.5 154.5
t42.5 163.5q-10 12 -99 20l-30 2q1 47 10 85q86 -14 119 -14l11 1q4 37 4 90z" />
    <glyph glyph-name="bar" unicode="|" horiz-adv-x="268" 
d="M204 796v-939q-44 -6 -95 -6v940q63 5 95 5z" />
    <glyph glyph-name="braceright" unicode="}" horiz-adv-x="471" 
d="M293 121l3 -206q0 -65 -38 -102t-102 -37t-128 27l8 50q66 0 79 13.5t20.5 71.5t14 139.5t10.5 108.5q7 52 69 74q-23 8 -36.5 28t-13.5 50.5t18 144t18 132.5t-4 30t-23 20.5t-36 12.5l-17 2l6 50q29 5 67 5q177 0 177 -112q0 -36 -34.5 -154.5t-42.5 -163.5
q10 -12 99 -19l30 -3q-1 -47 -10 -85q-86 14 -119 14l-11 -1q-4 -37 -4 -90z" />
    <glyph glyph-name="asciitilde" unicode="~" horiz-adv-x="540" 
d="M384 224q-24 0 -108.5 13.5t-109 13.5t-40 -8t-31.5 -32l-51 13q16 152 137 152q25 0 107.5 -13.5t118 -13.5t58.5 33l48 -12q-16 -146 -129 -146z" />
    <glyph glyph-name="nbspace" unicode="&#xa0;" horiz-adv-x="200" 
 />
    <glyph glyph-name="exclamdown" unicode="&#xa1;" horiz-adv-x="311" 
d="M286 430q23 -22 23 -60t-31 -66.5t-74.5 -28.5t-67 23.5t-23.5 60.5t32 65t75 28t66 -22zM13 -231q0 73 47.5 240.5t68.5 203.5q31 11 59 11t48 -4q-26 -245 -26 -383l6 -87q-110 -34 -190 -34q-13 16 -13 53z" />
    <glyph glyph-name="cent" unicode="&#xa2;" horiz-adv-x="415" 
d="M282 376q-31 0 -53 -55t-22 -111q0 -123 71 -123q45 0 102 43l32 -44q-80 -87 -196 -97q-5 -40 -5 -105q-39 0 -84 14l18 96q-58 13 -91.5 59.5t-33.5 125.5q0 103 56.5 173.5t152.5 86.5q5 49 9 123q36 0 81 -14l-21 -106q67 -4 104.5 -34t37.5 -74.5t-28 -78.5
q-33 0 -71.5 12.5t-61.5 31.5l15 75q-6 2 -12 2z" />
    <glyph glyph-name="sterling" unicode="&#xa3;" horiz-adv-x="551" 
d="M385 733q83 0 138.5 -34.5t55.5 -88.5q0 -40 -33 -82q-95 0 -138 38l11 87q-9 9 -24 9t-25 -10q-15 -18 -23 -48t-17 -85t-20 -108h158q-2 -23 -16 -55l-5 -10q-73 6 -152 6q-32 -117 -70 -194q126 -35 189 -35q26 0 43 21q15 18 27 41l54 -21q-20 -94 -53 -138t-82 -44
q-32 0 -65.5 13t-80 37.5t-74.5 36.5q-28 -35 -63 -57.5t-49.5 -22.5t-48 44.5t-33.5 65.5q0 10 37 36.5t71 33.5q16 49 30 174q-19 -2 -49 -8q-3 14 -3 33.5t3 42.5h57l11 94q16 141 81 187q33 24 69.5 32.5t88.5 8.5z" />
    <glyph glyph-name="currency" unicode="&#xa4;" horiz-adv-x="696" 
d="M152 222q-29 54 -29 123.5t23 118.5q-63 54 -102 104q38 42 57.5 58t41 16.5t42.5 -26.5l44 -60q54 31 131 31t133 -32q9 12 24 33t21 28q21 27 45 27q19 -2 39 -17t57 -57q-35 -45 -103 -105q24 -51 24 -117t-25 -117q68 -60 106 -107q-37 -41 -56.5 -55.5t-38.5 -16.5
q-24 0 -45 27q-6 8 -22 30t-26 34q-54 -31 -128.5 -31t-126.5 26q-42 -58 -43 -59q-21 -27 -45 -27q-19 2 -38.5 16.5t-56.5 55.5q33 42 97 99zM361 468q-108 0 -108 -118.5t108 -118.5q56 0 82 32t26 86t-26 86.5t-82 32.5z" />
    <glyph glyph-name="yen" unicode="&#xa5;" horiz-adv-x="516" 
d="M60 270q0 19 3 40h122q-26 36 -46 156t-25 136q-10 28 -44 55l-12 9l3 23q102 17 208 17q27 -19 33 -58.5t11 -121t9 -102.5h5q25 44 58.5 131.5t50.5 154.5q28 0 68 -7.5t58 -17.5q-7 -11 -80 -157t-118 -218h117q-2 -27 -15 -54l-4 -10q-45 3 -114 3l-7 -42h127
q-2 -27 -14 -54l-5 -10q-48 4 -116 6q-7 -70 -7 -121q-43 -28 -188 -28h-5q0 44 19 144q-45 -4 -102 -11q-3 16 -3 35.5t3 38.5h115l9 40q-67 -3 -112 -9q-2 13 -2 32z" />
    <glyph glyph-name="brokenbar" unicode="&#xa6;" horiz-adv-x="278" 
d="M109 -149v441h95v-435q-43 -6 -95 -6zM204 797v-398h-95v392q27 6 95 6z" />
    <glyph glyph-name="section" unicode="&#xa7;" horiz-adv-x="494" 
d="M339 666q-62 0 -62 -56q0 -53 102 -155q37 -37 68 -88t31 -98t-42 -88t-110 -67q57 -72 57 -137.5t-56 -108t-135.5 -42.5t-137 29.5t-57.5 53.5q2 29 38 62.5t72 43.5q37 -25 61 -75q7 -16 18 -47q20 5 27 14t7 31.5t-20.5 56t-50 66.5t-58.5 68q-70 84 -70 157
q0 56 39.5 95.5t105.5 59.5q-57 73 -57 139t67.5 110t145 44t122 -35.5t44.5 -89.5t-60 -105q-54 9 -80 47q16 12 29 31.5t13 39.5t-14.5 32t-36.5 12zM288 285q-15 22 -22 31q-15 22 -48 60q-27 -22 -27 -61q0 -31 37 -73q10 -12 15.5 -18.5t18.5 -20.5t18 -20
q23 23 23 51.5t-15 50.5z" />
    <glyph glyph-name="dieresis" unicode="&#xa8;" horiz-adv-x="548" 
d="M108 550q-21 20 -21 51.5t26 53t63 21.5t57.5 -17.5t20.5 -49.5t-25.5 -55.5t-62.5 -23.5t-58 20zM319 550q-21 20 -21 51.5t26 53t63 21.5t57.5 -17.5t20.5 -49.5t-25.5 -55.5t-62.5 -23.5t-58 20z" />
    <glyph glyph-name="copyright" unicode="&#xa9;" horiz-adv-x="791" 
d="M552 388q-71 0 -100 21l4 90q-3 6 -20 6q-31 0 -52.5 -45t-21.5 -114q0 -128 80 -128q56 0 96 40l38 -47q-3 -3 -7.5 -9t-22 -20t-36.5 -25q-50 -29 -114 -29q-84 0 -144 52t-60 148.5t72.5 169.5t180.5 73q69 0 115.5 -31.5t46.5 -84.5q0 -20 -6 -41.5t-12 -23.5
q-17 -2 -37 -2zM130 86.5q-98 101.5 -98 257.5t99 259.5t278 103.5t276 -101t97 -259t-97 -260t-277 -102t-278 101.5zM195 553.5q-76 -83.5 -76 -209t75 -207.5t214.5 -82t214 82.5t74.5 210t-74.5 208.5t-213 81t-214.5 -83.5z" />
    <glyph glyph-name="ordfeminine" unicode="&#xaa;" horiz-adv-x="399" 
d="M233 339q-44 -29 -85 -29t-69.5 33t-28.5 93q0 96 52.5 162t139.5 66q34 0 56 -6q55 -15 91 -27q-16 -47 -29.5 -123.5t-13.5 -109.5q0 -10 8 -10l28 8l14 -35q-17 -17 -50.5 -34.5t-65.5 -17.5t-47 30zM239 602q-23 0 -39 -55t-16 -106t17 -51q9 0 21 10q7 85 36 199
q-12 3 -19 3z" />
    <glyph glyph-name="guillemotleft" unicode="&#xab;" horiz-adv-x="523" 
d="M114 194.5q-70 70.5 -70 95t67 88.5t142 124l46 -41q-78 -111 -105 -166q25 -69 76 -159l-45 -41q-41 29 -111 99.5zM315 194.5q-70 70.5 -70 95t67 88.5t142 124l46 -41q-78 -111 -105 -166q25 -69 76 -159l-45 -41q-41 29 -111 99.5z" />
    <glyph glyph-name="logicalnot" unicode="&#xac;" horiz-adv-x="455" 
d="M404 389v-220q-34 -12 -97 -12v139h-261q0 61 6 93h352z" />
    <glyph glyph-name="uni00AD" unicode="&#xad;" horiz-adv-x="590" 
d="M493 234h-369q-3 42 -3 90h369q3 -55 3 -90z" />
    <glyph glyph-name="registered" unicode="&#xae;" horiz-adv-x="794" 
d="M431 182q-11 20 -16 34t-11.5 47.5t-10.5 47.5h-10q-17 -107 -18 -145q-39 -19 -120 -19q-16 0 -36 5q5 45 33 164t28 140q0 29 -20 54l-7 8l5 26q94 23 201 23q67 0 110.5 -27.5t43.5 -71.5q0 -94 -93 -128q18 -42 40 -81t34 -39l22 2l15 -35q-51 -40 -110.5 -40
t-79.5 35zM458 472q0 32 -27 32l-17 -1q-3 -18 -9 -59t-11 -68q30 2 47 22.5t17 73.5zM130 86.5q-98 101.5 -98 257.5t99 259.5t278 103.5t276 -101t97 -259t-97 -260t-277 -102t-278 101.5zM195 553.5q-76 -83.5 -76 -209t75 -207.5t214.5 -82t214 82.5t74.5 210
t-74.5 208.5t-213 81t-214.5 -83.5z" />
    <glyph glyph-name="macron" unicode="&#xaf;" horiz-adv-x="502" 
d="M135 575q-3 15 -3 39t4 50h371l-9 -86q-64 4 -186 4t-177 -7z" />
    <glyph glyph-name="degree" unicode="&#xb0;" horiz-adv-x="255" 
d="M287 687.5q38 -29.5 38 -79t-37.5 -90t-115.5 -40.5q-55 0 -95 28t-40 82.5t40 91.5t106 37t104 -29.5zM146 558q9 -14 31.5 -14t34 21.5t11.5 40t-9 32t-30.5 13.5t-34 -20t-12.5 -39.5t9 -33.5z" />
    <glyph glyph-name="plusminus" unicode="&#xb1;" horiz-adv-x="583" 
d="M329 303v-142q-30 -8 -90 -8h-7v150h-155q0 60 4 93h151v140q32 5 96 5v-145h170q0 -78 -5 -93h-164zM77 9q0 66 10 93h412q0 -69 -5 -93h-417z" />
    <glyph glyph-name="twosuperior" unicode="&#xb2;" horiz-adv-x="397" 
d="M315 345q-38 0 -84.5 20t-57.5 24q-54 -35 -82 -35q-12 0 -30.5 20.5t-18.5 30.5t24 34.5t42 24.5t30 -2q35 25 65.5 69t30.5 82.5t-32.5 38.5t-64.5 -43l-44 31q30 43 65 68.5t90.5 25.5t91 -28.5t35.5 -74t-46 -97.5t-102 -87q51 -12 80 -12t37.5 6.5t17.5 21.5l39 -14
q-9 -104 -86 -104z" />
    <glyph glyph-name="threesuperior" unicode="&#xb3;" horiz-adv-x="356" 
d="M144.5 712.5q40.5 21.5 98 21.5t93 -23t35.5 -56t-27.5 -56.5t-73.5 -35.5q104 -12 104 -94q0 -52 -45.5 -88.5t-144.5 -36.5q-54 0 -97.5 23t-43.5 64q0 21 13 44q59 0 112 -25l-8 -53q8 -3 15 -3q23 0 32.5 25.5t9.5 57t-21 42.5t-65 12l-1 40q14 1 31 4q58 10 58 60
q0 16 -10 24t-25 8q-37 0 -64 -35l-38 29q22 30 62.5 51.5z" />
    <glyph glyph-name="acute" unicode="&#xb4;" horiz-adv-x="616" 
d="M459 614q0 -35 -37 -51q-56 -26 -260 -62l-17 50q123 60 274 156q11 -15 25.5 -47t14.5 -46z" />
    <glyph glyph-name="mu" unicode="&#xb5;" horiz-adv-x="544" 
d="M1 -218l-3 38q0 162 71 410q24 84 24 103t-7.5 31.5t-28.5 37.5l2 15q82 18 213 18q8 -14 8 -48.5t-27.5 -138.5t-27.5 -128q0 -31 30 -31q15 0 34 7q0 2 28.5 130.5t28.5 187.5q46 20 154 20h28q0 -45 -27 -175.5t-27.5 -150t7.5 -19.5l50 14l18 -50
q-29 -24 -82.5 -44.5t-95.5 -20.5q-67 0 -80 55q-74 -47 -143 -54q-1 -20 -1 -38q0 -80 25 -135q-65 -26 -171 -34z" />
    <glyph glyph-name="mu" unicode="&#x3bc;" horiz-adv-x="544" 
d="M1 -218l-3 38q0 162 71 410q24 84 24 103t-7.5 31.5t-28.5 37.5l2 15q82 18 213 18q8 -14 8 -48.5t-27.5 -138.5t-27.5 -128q0 -31 30 -31q15 0 34 7q0 2 28.5 130.5t28.5 187.5q46 20 154 20h28q0 -45 -27 -175.5t-27.5 -150t7.5 -19.5l50 14l18 -50
q-29 -24 -82.5 -44.5t-95.5 -20.5q-67 0 -80 55q-74 -47 -143 -54q-1 -20 -1 -38q0 -80 25 -135q-65 -26 -171 -34z" />
    <glyph glyph-name="paragraph" unicode="&#xb6;" horiz-adv-x="643" 
d="M198 -167h-30q4 73 61 325q-81 3 -128 56t-47 148q0 144 89 239.5t241 95.5h256q7 -31 7 -62.5t-2.5 -57t-9.5 -58.5t-11.5 -53t-16 -64t-15.5 -62t-21 -83.5t-25 -99.5t-20 -89q-22 -101 -22 -184q-58 -26 -110 -26h-30q2 106 90 446q42 162 48.5 217t6.5 86
q-41 0 -54 -4q-7 -125 -74 -376.5t-77 -370.5q-47 -23 -106 -23z" />
    <glyph glyph-name="periodcentered" unicode="&#xb7;" horiz-adv-x="325" 
d="M93.5 265.5q-22.5 23.5 -22.5 62t30.5 66t73 27.5t65 -22.5t22.5 -60.5t-30.5 -67t-73 -29t-65 23.5z" />
    <glyph glyph-name="cedilla" unicode="&#xb8;" horiz-adv-x="512" 
d="M245 -95q0 -18 15 -18q29 0 68 23l28 -41q-21 -24 -66 -45.5t-80.5 -21.5t-57.5 19.5t-22 55t39 77t71 55.5l60 -6q-55 -52 -55 -98z" />
    <glyph glyph-name="onesuperior" unicode="&#xb9;" horiz-adv-x="312" 
d="M286 733l17 1q12 -20 12 -46t-32 -156.5t-32 -166.5q-37 -16 -116 -16h-32q5 53 31.5 154.5t34.5 157.5q-7 0 -32.5 -21.5t-30.5 -25.5l-36 48l86 63q30 4 130 8z" />
    <glyph glyph-name="ordmasculine" unicode="&#xba;" horiz-adv-x="331" 
d="M185 546.5q-14 -46.5 -14 -93.5t5 -63.5t19 -16.5q24 0 38 53t14 110t-24 57t-38 -46.5zM373 531q0 -87 -50 -156t-147 -69q-64 0 -98 36t-34 94q0 100 54.5 162t143.5 62q67 0 99 -37t32 -92z" />
    <glyph glyph-name="guillemotright" unicode="&#xbb;" horiz-adv-x="554" 
d="M441 402.5q70 -70.5 70 -95t-67 -88.5t-142 -124l-46 41q78 111 105 166q-25 69 -76 159l45 41q41 -29 111 -99.5zM240 402.5q70 -70.5 70 -95t-67 -88.5t-142 -124l-47 41q78 111 105 166q-25 69 -76 159l46 41q41 -29 111 -99.5z" />
    <glyph glyph-name="onequarter" unicode="&#xbc;" horiz-adv-x="780" 
d="M640 698l7 -3q-43 -99 -121 -221.5t-149.5 -244.5t-113.5 -241q-31 1 -70 12t-63 29q55 154 182 345q129 196 196 361q63 -5 132 -37zM712 139q16 0 26 23l35 -11q-4 -32 -22.5 -59t-58.5 -27h-11q-6 -26 -6 -54q-37 -17 -118 -17h-22q0 25 6.5 53t7.5 33q-45 5 -68 5
t-61 -10q-12 0 -27 11t-15 19.5t6 17.5q95 122 118 157q35 49 63 87q58 12 148 13q10 -19 10 -37q0 -59 -31 -204h20zM283 733l17 1q12 -20 12 -46t-32 -156.5t-32 -166.5q-37 -16 -116 -16h-32q5 53 31.5 154.5t34.5 157.5q-7 0 -32.5 -21.5t-30.5 -25.5l-36 48l86 63
q30 4 130 8zM509 155q40 -2 51 -4q28 120 27 139q-60 -96 -78 -135z" />
    <glyph glyph-name="onehalf" unicode="&#xbd;" horiz-adv-x="783" 
d="M640 698l7 -3q-43 -99 -121 -221.5t-149.5 -244.5t-113.5 -241q-31 1 -70 12t-63 29q55 154 182 345q129 196 196 361q63 -5 132 -37zM673 -24q-38 0 -84.5 20t-57.5 24q-54 -35 -82 -35q-12 0 -30.5 20.5t-18.5 30.5t24 34.5t43 24.5t29 -2q35 25 65.5 69t30.5 82.5
t-32 38.5q-34 0 -66 -43l-43 31q30 43 65 68.5t90.5 25.5t91 -28.5t35.5 -74t-46 -97.5t-102 -87q51 -12 80 -12t37.5 6.5t17.5 21.5l39 -14q-9 -104 -86 -104zM283 733l17 1q12 -20 12 -46t-32 -156.5t-32 -166.5q-37 -16 -116 -16h-32q5 53 31.5 154.5t34.5 157.5
q-7 0 -32.5 -21.5t-30.5 -25.5l-36 48l86 63q30 4 130 8z" />
    <glyph glyph-name="threequarters" unicode="&#xbe;" horiz-adv-x="845" 
d="M705 698l7 -3q-43 -99 -121 -221.5t-149.5 -244.5t-113.5 -241q-31 1 -70 12t-63 29q55 154 182 345q129 196 196 361q63 -5 132 -37zM777 139q16 0 26 23l35 -11q-4 -32 -22.5 -59t-58.5 -27h-11q-6 -26 -6 -54q-37 -17 -118 -17h-22q0 25 6.5 53t7.5 33q-45 5 -68.5 5
t-60.5 -10q-12 0 -27 11t-15 19.5t6 17.5q95 122 118 157q35 49 63 87q58 12 148 13q10 -19 10 -37q0 -59 -31 -204h20zM129.5 712.5q40.5 21.5 98 21.5t93 -23t35.5 -56t-27.5 -56.5t-73.5 -35.5q104 -12 104 -94q0 -52 -45.5 -88.5t-144.5 -36.5q-42 0 -79 15t-55 44
q-8 12 -8 29.5t14 42.5q59 0 112 -25l-8 -53q7 -3 15 -3q23 0 32.5 25.5t9.5 57t-21 42.5t-65 12l-1 40q14 1 31 4q58 10 58 60q0 16 -10 24t-25 8q-37 0 -64 -35l-38 29q22 30 62.5 51.5zM574 155q40 -2 51 -4q28 120 27 139q-60 -96 -78 -135z" />
    <glyph glyph-name="questiondown" unicode="&#xbf;" horiz-adv-x="362" 
d="M129 146q0 10 -21 17q-3 1 -10.5 4t-13 4.5t-8.5 2.5q7 31 23 53q90 0 145.5 -30.5t55.5 -88.5q0 -37 -40 -88q-13 -18 -40 -50q-103 -125 -103 -159q0 -18 33 -18q42 73 79 107q36 -5 80 -40.5t44 -56t-48 -52.5t-113 -32q-97 0 -153 48.5t-56 123.5q0 30 16.5 65.5
t30 54.5t40.5 51q59 65 59 84zM304.5 419q24.5 -22 24.5 -58t-32.5 -62t-77 -26t-65.5 22t-21 56t29.5 62t73.5 28t68.5 -22z" />
    <glyph glyph-name="Agrave" unicode="&#xc0;" horiz-adv-x="604" 
d="M95 13q-13 -22 -49.5 -22t-75.5 27q30 84 123 278.5t124 292.5q3 12 3 21q0 19 -22 46l-7 10l4 20q89 24 215 24l73 -4q13 -15 20 -46q17 -75 17 -400q0 -161 36 -161q14 0 47 10l10 3l21 -57q-41 -31 -96 -49t-108 -18q-102 0 -102 151q0 52 1 77q-19 4 -74 4t-95 -11
q-37 -99 -65 -196zM241 905q31 0 112 -35.5t164 -81.5l-22 -53q-97 23 -325 67q31 103 71 103zM333 300q5 87 5 175t-10 128q-10 0 -14 -2q-22 -67 -118 -301h137z" />
    <glyph glyph-name="Aacute" unicode="&#xc1;" horiz-adv-x="604" 
d="M95 13q-13 -22 -49.5 -22t-75.5 27q30 84 123 278.5t124 292.5q3 12 3 21q0 19 -22 46l-7 10l4 20q89 24 215 24l73 -4q13 -15 20 -46q17 -75 17 -400q0 -161 36 -161q14 0 47 10l10 3l21 -57q-41 -31 -96 -49t-108 -18q-102 0 -102 151q0 52 1 77q-19 4 -74 4t-95 -11
q-37 -99 -65 -196zM545 842q0 -32 -38 -46q-49 -21 -279 -56l-19 54q27 12 77 34t79 35q83 37 140 70q11 -16 25.5 -46.5t14.5 -44.5zM333 300q5 87 5 175t-10 128q-10 0 -14 -2q-22 -67 -118 -301h137z" />
    <glyph glyph-name="Acircumflex" unicode="&#xc2;" horiz-adv-x="604" 
d="M95 13q-13 -22 -49.5 -22t-75.5 27q30 84 123 278.5t124 292.5q3 12 3 21q0 19 -22 46l-7 10l4 20q89 24 215 24l73 -4q13 -15 20 -46q17 -75 17 -400q0 -161 36 -161q14 0 47 10l10 3l21 -57q-41 -31 -96 -49t-108 -18q-102 0 -102 151q0 52 1 77q-19 4 -74 4t-95 -11
q-37 -99 -65 -196zM305 875q87 44 117.5 44t83 -53t76.5 -88l-39 -37q-109 45 -154 59q-71 -14 -204 -61l-29 48q62 44 149 88zM333 300q5 87 5 175t-10 128q-10 0 -14 -2q-22 -67 -118 -301h137z" />
    <glyph glyph-name="Atilde" unicode="&#xc3;" horiz-adv-x="604" 
d="M95 13q-13 -22 -49.5 -22t-75.5 27q30 84 123 278.5t124 292.5q3 12 3 21q0 19 -22 46l-7 10l4 20q89 24 215 24l73 -4q13 -15 20 -46q17 -75 17 -400q0 -161 36 -161q14 0 47 10l10 3l21 -57q-41 -31 -96 -49t-108 -18q-102 0 -102 151q0 52 1 77q-19 4 -74 4t-95 -11
q-37 -99 -65 -196zM460 761q-22 0 -91 14.5t-91 14.5q-42 0 -68 -37l-54 14q14 137 123 137q23 0 91 -14.5t92 -14.5t35 6t24 24l55 -12q-14 -132 -116 -132zM333 300q5 87 5 175t-10 128q-10 0 -14 -2q-22 -67 -118 -301h137z" />
    <glyph glyph-name="Adieresis" unicode="&#xc4;" horiz-adv-x="604" 
d="M95 13q-13 -22 -49.5 -22t-75.5 27q30 84 123 278.5t124 292.5q3 12 3 21q0 19 -22 46l-7 10l4 20q89 24 215 24l73 -4q13 -15 20 -46q17 -75 17 -400q0 -161 36 -161q14 0 47 10l10 3l21 -57q-41 -31 -96 -49t-108 -18q-102 0 -102 151q0 52 1 77q-19 4 -74 4t-95 -11
q-37 -99 -65 -196zM333 300q5 87 5 175t-10 128q-10 0 -14 -2q-22 -67 -118 -301h137zM420 777q-21 20 -21 51.5t26 53t63 21.5t57.5 -17.5t20.5 -49.5t-25.5 -55.5t-62.5 -23.5t-58 20zM193 777q-21 20 -21 51.5t26 53t63 21.5t57.5 -17.5t20.5 -49.5t-25.5 -55.5
t-62.5 -23.5t-58 20z" />
    <glyph glyph-name="Aring" unicode="&#xc5;" horiz-adv-x="604" 
d="M95 13q-13 -22 -49.5 -22t-75.5 27q30 84 123 278.5t124 292.5q3 12 3 21q0 19 -22 46l-7 10l4 20q89 24 215 24l73 -4q13 -15 20 -46q17 -75 17 -400q0 -161 36 -161q14 0 47 10l10 3l21 -57q-41 -31 -96 -49t-108 -18q-102 0 -102 151q0 52 1 77q-19 4 -74 4t-95 -11
q-37 -99 -65 -196zM288 768q-31 29 -31 72.5t30.5 72t85 28.5t85 -28.5t30.5 -72t-30 -72.5t-84.5 -29t-85.5 29zM333 300q5 87 5 175t-10 128q-10 0 -14 -2q-22 -67 -118 -301h137zM341.5 867.5q-11.5 -10.5 -11.5 -27t11.5 -27t31 -10.5t29.5 10.5t10 26.5q0 38 -39 38
q-20 0 -31.5 -10.5z" />
    <glyph glyph-name="AE" unicode="&#xc6;" horiz-adv-x="748" 
d="M503 375q55 7 118.5 7t83.5 -9q0 -31 -13 -70l-4 -12q-54 9 -90 9q-57 0 -90 -6l-11 -2q-2 -16 -2 -51q0 -88 16.5 -118t52.5 -30q66 0 166 43l21 -59q-129 -89 -264 -89q-95 0 -138.5 53t-43.5 156q0 53 1 65q-28 -1 -72.5 -13.5t-71.5 -28.5q-19 -51 -41 -120.5
t-27 -84.5q-10 -24 -47 -24t-77 27q13 52 136.5 308t123.5 285q0 20 -22 46l-7 9l5 20q96 24 231 24l227 -4q32 0 74 2q3 -25 3 -42q0 -49 -36 -49q-7 0 -59.5 7.5t-71.5 7.5t-40 -3q-31 -184 -31 -254zM319 601q-12 -43 -56 -144t-53 -124q71 15 101 18q2 11 15 111t20 143
q-18 0 -27 -4z" />
    <glyph glyph-name="Ccedilla" unicode="&#xc7;" horiz-adv-x="578" 
d="M294 -95q0 -18 15 -18q29 0 68 23l28 -41q-21 -24 -66 -45.5t-80.5 -21.5t-57.5 19.5t-22 50.5t23.5 63t54.5 55q-93 11 -151 87.5t-58 196.5t43.5 218.5t124 158t178.5 59.5t160 -39t62 -99.5t-34 -96.5q-40 0 -92 16t-78 39l19 97q-18 10 -44 10q-56 0 -99.5 -101.5
t-43.5 -244.5q0 -97 31.5 -144.5t80.5 -47.5q70 0 154 74l47 -47q-28 -38 -83 -76q-65 -46 -136 -57q-44 -49 -44 -88z" />
    <glyph glyph-name="Egrave" unicode="&#xc8;" horiz-adv-x="545" 
d="M267 -13q-125 0 -191 81q-37 46 -37 118.5t60 127.5t142 64q-57 15 -91.5 51.5t-34.5 92.5q0 87 73.5 137.5t167.5 50.5t158 -38.5t64 -99.5q0 -43 -20 -75l-7 -10q-41 0 -88 12.5t-71 32.5l10 102q-15 7 -32 7q-62 0 -62 -126q0 -68 44 -96q31 -20 75 -28l-8 -58
q-72 -1 -128.5 -39.5t-56.5 -107.5q0 -44 30 -65.5t71.5 -21.5t87.5 21t79 53l45 -45q-43 -58 -118 -99.5t-162 -41.5zM254 905q31 0 112 -35.5t164 -81.5l-22 -53q-97 23 -325 67q31 103 71 103z" />
    <glyph glyph-name="Eacute" unicode="&#xc9;" horiz-adv-x="545" 
d="M267 -13q-125 0 -191 81q-37 46 -37 118.5t60 127.5t142 64q-57 15 -91.5 51.5t-34.5 92.5q0 87 73.5 137.5t167.5 50.5t158 -38.5t64 -99.5q0 -43 -20 -75l-7 -10q-41 0 -88 12.5t-71 32.5l10 102q-15 7 -32 7q-62 0 -62 -126q0 -68 44 -96q31 -20 75 -28l-8 -58
q-72 -1 -128.5 -39.5t-56.5 -107.5q0 -44 30 -65.5t71.5 -21.5t87.5 21t79 53l45 -45q-43 -58 -118 -99.5t-162 -41.5zM566 842q0 -32 -38 -46q-49 -21 -279 -56l-19 54q27 12 77 34t79 35q83 37 140 70q11 -16 25.5 -46.5t14.5 -44.5z" />
    <glyph glyph-name="Ecircumflex" unicode="&#xca;" horiz-adv-x="545" 
d="M267 -13q-125 0 -191 81q-37 46 -37 118.5t60 127.5t142 64q-57 15 -91.5 51.5t-34.5 92.5q0 87 73.5 137.5t167.5 50.5t158 -38.5t64 -99.5q0 -43 -20 -75l-7 -10q-41 0 -88 12.5t-71 32.5l10 102q-15 7 -32 7q-62 0 -62 -126q0 -68 44 -96q31 -20 75 -28l-8 -58
q-72 -1 -128.5 -39.5t-56.5 -107.5q0 -44 30 -65.5t71.5 -21.5t87.5 21t79 53l45 -45q-43 -58 -118 -99.5t-162 -41.5zM313 875q87 44 117.5 44t83 -53t76.5 -88l-39 -37q-109 45 -154 59q-71 -14 -204 -61l-29 48q62 44 149 88z" />
    <glyph glyph-name="Edieresis" unicode="&#xcb;" horiz-adv-x="545" 
d="M267 -13q-125 0 -191 81q-37 46 -37 118.5t60 127.5t142 64q-57 15 -91.5 51.5t-34.5 92.5q0 87 73.5 137.5t167.5 50.5t158 -38.5t64 -99.5q0 -43 -20 -75l-7 -10q-41 0 -88 12.5t-71 32.5l10 102q-15 7 -32 7q-62 0 -62 -126q0 -68 44 -96q31 -20 75 -28l-8 -58
q-72 -1 -128.5 -39.5t-56.5 -107.5q0 -44 30 -65.5t71.5 -21.5t87.5 21t79 53l45 -45q-43 -58 -118 -99.5t-162 -41.5zM207 777q-21 20 -21 51.5t26 53t63 21.5t57.5 -17.5t20.5 -49.5t-25.5 -55.5t-62.5 -23.5t-58 20zM434 777q-21 20 -21 51.5t26 53t63 21.5t57.5 -17.5
t20.5 -49.5t-25.5 -55.5t-62.5 -23.5t-58 20z" />
    <glyph glyph-name="Igrave" unicode="&#xcc;" horiz-adv-x="361" 
d="M114 908q29 0 109 -36.5t158 -82.5l-22 -51q-54 14 -312 67q28 103 67 103zM245 127q0 -28 13 -28q22 0 54 13l22 -56q-92 -68 -178 -68q-50 0 -79.5 28.5t-29.5 80.5t51 235.5t56 255.5q0 17 -11 37t-21 32l-11 12l2 20q63 21 223 21q16 -30 16 -64q0 -58 -53.5 -253
t-53.5 -266z" />
    <glyph glyph-name="Iacute" unicode="&#xcd;" horiz-adv-x="361" 
d="M425 845q0 -33 -35 -46q-41 -18 -271 -56l-16 51q22 11 91 43q130 60 194 99q10 -16 23.5 -46.5t13.5 -44.5zM245 127q0 -28 13 -28q22 0 54 13l22 -56q-92 -68 -178 -68q-50 0 -79.5 28.5t-29.5 80.5t51 235.5t56 255.5q0 17 -11 37t-21 32l-11 12l2 20q63 21 223 21
q16 -30 16 -64q0 -58 -53.5 -253t-53.5 -266z" />
    <glyph glyph-name="Icircumflex" unicode="&#xce;" horiz-adv-x="361" 
d="M200 872q83 47 109 47t69 -48.5t71 -89.5l-35 -40q-91 45 -135 58q-52 -11 -190 -62l-27 46q55 42 138 89zM245 127q0 -28 13 -28q22 0 54 13l22 -56q-92 -68 -178 -68q-50 0 -79.5 28.5t-29.5 80.5t51 235.5t56 255.5q0 17 -11 37t-21 32l-11 12l2 20q63 21 223 21
q16 -30 16 -64q0 -58 -53.5 -253t-53.5 -266z" />
    <glyph glyph-name="Idieresis" unicode="&#xcf;" horiz-adv-x="361" 
d="M105.5 776.5q-20.5 20.5 -20.5 52t26 53.5t62 22t56.5 -18t20.5 -50t-25 -56t-62 -24t-57.5 20.5zM315.5 776.5q-20.5 20.5 -20.5 52t26 53.5t62.5 22t56.5 -18t20 -50t-25 -56t-62 -24t-57.5 20.5zM245 127q0 -28 13 -28q22 0 54 13l22 -56q-92 -68 -178 -68
q-50 0 -79.5 28.5t-29.5 80.5t51 235.5t56 255.5q0 17 -11 37t-21 32l-11 12l2 20q63 21 223 21q16 -30 16 -64q0 -58 -53.5 -253t-53.5 -266z" />
    <glyph glyph-name="Eth" unicode="&#xd0;" horiz-adv-x="694" 
d="M493.5 29q-67.5 -41 -138 -41t-129.5 26q-51 -19 -109.5 -19t-62.5 1q0 73 62 329h-70q0 57 5 82h85q28 121 28 152q0 51 -34 90l-12 13l3 23q30 8 117.5 16.5t156.5 8.5q297 0 297 -260q0 -173 -88 -313q-43 -67 -110.5 -108zM403 639q-18 0 -39 -3q-4 -59 -42 -229h103
q0 -47 -10 -82h-112q-37 -156 -49 -241q18 -9 45 -9q52 0 93 48t62 120q44 146 44 266q0 71 -21.5 100.5t-73.5 29.5z" />
    <glyph glyph-name="Ntilde" unicode="&#xd1;" horiz-adv-x="689" 
d="M58 -6h-17q0 60 56 306t56 285q0 17 -10.5 38t-20.5 33l-10 13l3 20q62 21 216 21q18 -38 18 -86v-2q120 88 210 88q53 0 87 -31.5t34 -90t-46 -235.5t-46 -215.5t13 -38.5q18 0 54 13l21 -57q-98 -67 -182 -67q-48 0 -73.5 25.5t-25.5 84.5t43.5 224.5t43.5 205.5
q0 51 -45 51q-33 0 -99 -41q-9 -48 -38 -166q-64 -269 -64 -352q-44 -26 -178 -26zM565 761q-23 0 -91.5 14.5t-90.5 14.5q-42 0 -68 -37l-54 14q14 137 123 137q22 0 91 -14.5t92.5 -14.5t34.5 6t24 24l55 -12q-14 -132 -116 -132z" />
    <glyph glyph-name="Ograve" unicode="&#xd2;" horiz-adv-x="675" 
d="M659 536q14 -45 14 -107t-21.5 -138t-64 -145.5t-117.5 -113.5t-171 -44q-117 0 -184 79t-67 199t45.5 219.5t130 162t188.5 62.5q70 0 122.5 -24t81.5 -64.5t43 -85.5zM281 78q18 -14 52.5 -14t65 40.5t47.5 104.5q32 126 32 261q0 164 -80 164q-38 0 -68.5 -35.5
t-48.5 -92.5q-37 -116 -37 -249q0 -149 37 -179zM284 905q31 0 112 -35.5t164 -81.5l-22 -53q-97 23 -325 67q31 103 71 103z" />
    <glyph glyph-name="Oacute" unicode="&#xd3;" horiz-adv-x="675" 
d="M659 536q14 -45 14 -107t-21.5 -138t-64 -145.5t-117.5 -113.5t-171 -44q-117 0 -184 79t-67 199t45.5 219.5t130 162t188.5 62.5q70 0 122.5 -24t81.5 -64.5t43 -85.5zM281 78q18 -14 52.5 -14t65 40.5t47.5 104.5q32 126 32 261q0 164 -80 164q-38 0 -68.5 -35.5
t-48.5 -92.5q-37 -116 -37 -249q0 -149 37 -179zM604 842q0 -32 -38 -46q-49 -21 -279 -56l-19 54q27 12 77 34t79 35q83 37 140 70q11 -16 25.5 -46.5t14.5 -44.5z" />
    <glyph glyph-name="Ocircumflex" unicode="&#xd4;" horiz-adv-x="675" 
d="M659 536q14 -45 14 -107t-21.5 -138t-64 -145.5t-117.5 -113.5t-171 -44q-117 0 -184 79t-67 199t45.5 219.5t130 162t188.5 62.5q70 0 122.5 -24t81.5 -64.5t43 -85.5zM281 78q18 -14 52.5 -14t65 40.5t47.5 104.5q32 126 32 261q0 164 -80 164q-38 0 -68.5 -35.5
t-48.5 -92.5q-37 -116 -37 -249q0 -149 37 -179zM368 875q87 44 117.5 44t83 -53t76.5 -88l-39 -37q-109 45 -154 59q-71 -14 -204 -61l-29 48q62 44 149 88z" />
    <glyph glyph-name="Otilde" unicode="&#xd5;" horiz-adv-x="675" 
d="M659 536q14 -45 14 -107t-21.5 -138t-64 -145.5t-117.5 -113.5t-171 -44q-117 0 -184 79t-67 199t45.5 219.5t130 162t188.5 62.5q70 0 122.5 -24t81.5 -64.5t43 -85.5zM281 78q18 -14 52.5 -14t65 40.5t47.5 104.5q32 126 32 261q0 164 -80 164q-38 0 -68.5 -35.5
t-48.5 -92.5q-37 -116 -37 -249q0 -149 37 -179zM524 761q-22 0 -91 14.5t-91 14.5q-42 0 -68 -37l-54 14q14 137 123 137q23 0 91 -14.5t92 -14.5t35 6t24 24l55 -12q-14 -132 -116 -132z" />
    <glyph glyph-name="Odieresis" unicode="&#xd6;" horiz-adv-x="675" 
d="M659 536q14 -45 14 -107t-21.5 -138t-64 -145.5t-117.5 -113.5t-171 -44q-117 0 -184 79t-67 199t45.5 219.5t130 162t188.5 62.5q70 0 122.5 -24t81.5 -64.5t43 -85.5zM281 78q18 -14 52.5 -14t65 40.5t47.5 104.5q32 126 32 261q0 164 -80 164q-38 0 -68.5 -35.5
t-48.5 -92.5q-37 -116 -37 -249q0 -149 37 -179zM242 777q-21 20 -21 51.5t26 53t63 21.5t57.5 -17.5t20.5 -49.5t-25.5 -55.5t-62.5 -23.5t-58 20zM469 777q-21 20 -21 51.5t26 53t63 21.5t57.5 -17.5t20.5 -49.5t-25.5 -55.5t-62.5 -23.5t-58 20z" />
    <glyph glyph-name="multiply" unicode="&#xd7;" horiz-adv-x="511" 
d="M388 91l-129 128l-128 -128q-51 47 -61 70l124 124l-122 122q18 26 63 69l124 -125l125 125q45 -43 63 -69l-122 -122l124 -124q-14 -26 -61 -70z" />
    <glyph glyph-name="Oslash" unicode="&#xd8;" horiz-adv-x="675" 
d="M578 776q-7 -16 -37 -94q67 -34 99.5 -100t32.5 -140.5t-21.5 -150.5t-64 -145.5t-117.5 -113.5t-171 -44q-13 0 -33 2l-34 -94q-14 1 -40 10q-27 8 -43 18q15 45 33 90q-65 32 -99.5 100t-34.5 170t45.5 201.5t130 162t188.5 62.5q22 0 42 -3q5 12 37 95q26 -2 53 -11
t34 -15zM328 64q40 0 70.5 40.5t47.5 104.5q32 126 32 261q0 15 -2 51q-123 -304 -180 -451q14 -6 32 -6zM245 181l178 448q-12 5 -25 5q-38 0 -68.5 -35.5t-48.5 -92.5q-37 -116 -37 -249q0 -65 1 -76z" />
    <glyph glyph-name="Ugrave" unicode="&#xd9;" horiz-adv-x="705" 
d="M306 120q41 0 104 36q2 14 46 205.5t44 272.5q0 30 -1 41q100 35 191 35q6 -7 6 -34q0 -60 -49.5 -280t-49.5 -258.5t14 -38.5q9 0 54 13l21 -56q-94 -68 -181 -68q-41 0 -67 23t-32 62q-123 -85 -211 -85q-57 0 -93.5 31.5t-36.5 86t43 224.5t43 258q0 17 -10.5 37
t-20.5 32l-11 12l3 20q63 21 217 21q19 -26 19 -88t-43 -239t-43 -213q0 -50 44 -50zM290 905q31 0 112 -35.5t164 -81.5l-22 -53q-97 23 -325 67q31 103 71 103z" />
    <glyph glyph-name="Uacute" unicode="&#xda;" horiz-adv-x="705" 
d="M306 120q41 0 104 36q2 14 46 205.5t44 272.5q0 30 -1 41q100 35 191 35q6 -7 6 -34q0 -60 -49.5 -280t-49.5 -258.5t14 -38.5q9 0 54 13l21 -56q-94 -68 -181 -68q-41 0 -67 23t-32 62q-123 -85 -211 -85q-57 0 -93.5 31.5t-36.5 86t43 224.5t43 258q0 17 -10.5 37
t-20.5 32l-11 12l3 20q63 21 217 21q19 -26 19 -88t-43 -239t-43 -213q0 -50 44 -50zM665 842q0 -32 -38 -46q-49 -21 -279 -56l-19 54q27 12 77 34t79 35q83 37 140 70q11 -16 25.5 -46.5t14.5 -44.5z" />
    <glyph glyph-name="Ucircumflex" unicode="&#xdb;" horiz-adv-x="705" 
d="M306 120q41 0 104 36q2 14 46 205.5t44 272.5q0 30 -1 41q100 35 191 35q6 -7 6 -34q0 -60 -49.5 -280t-49.5 -258.5t14 -38.5q9 0 54 13l21 -56q-94 -68 -181 -68q-41 0 -67 23t-32 62q-123 -85 -211 -85q-57 0 -93.5 31.5t-36.5 86t43 224.5t43 258q0 17 -10.5 37
t-20.5 32l-11 12l3 20q63 21 217 21q19 -26 19 -88t-43 -239t-43 -213q0 -50 44 -50zM389 875q87 44 117.5 44t83 -53t76.5 -88l-39 -37q-109 45 -154 59q-71 -14 -204 -61l-29 48q62 44 149 88z" />
    <glyph glyph-name="Udieresis" unicode="&#xdc;" horiz-adv-x="705" 
d="M306 120q41 0 104 36q2 14 46 205.5t44 272.5q0 30 -1 41q100 35 191 35q6 -7 6 -34q0 -60 -49.5 -280t-49.5 -258.5t14 -38.5q9 0 54 13l21 -56q-94 -68 -181 -68q-41 0 -67 23t-32 62q-123 -85 -211 -85q-57 0 -93.5 31.5t-36.5 86t43 224.5t43 258q0 17 -10.5 37
t-20.5 32l-11 12l3 20q63 21 217 21q19 -26 19 -88t-43 -239t-43 -213q0 -50 44 -50zM512 777q-21 20 -21 51.5t26 53t63 21.5t57.5 -17.5t20.5 -49.5t-25.5 -55.5t-62.5 -23.5t-58 20zM285 777q-21 20 -21 51.5t26 53t63 21.5t57.5 -17.5t20.5 -49.5t-25.5 -55.5
t-62.5 -23.5t-58 20z" />
    <glyph glyph-name="Yacute" unicode="&#xdd;" horiz-adv-x="670" 
d="M665 842q0 -32 -38 -46q-49 -21 -279 -56l-19 54q27 12 77 34t79 35q83 37 140 70q11 -16 25.5 -46.5t14.5 -44.5zM303.5 -215q-33.5 -9 -74 -9t-74 27t-33.5 66t19.5 66.5t56.5 46.5q65 34 164 55q7 16 23 73q-40 -21 -100.5 -39t-107.5 -18t-79.5 31.5t-32.5 87
t36.5 202t36.5 209.5q0 19 -10 40.5t-20 34.5l-9 12l3 20q62 20 214 20q19 -33 19 -88.5t-38 -212.5t-38 -186q0 -50 35 -50q48 0 115 36q33 140 56 275t23 196q32 13 86 21t89 8h22q0 -77 -41 -271q-15 -67 -43.5 -198.5t-65 -214t-74 -128t-81 -74.5t-77 -38zM196 -113
q0 -22 29 -22t64 33.5t50 68.5q-58 -9 -100.5 -31.5t-42.5 -48.5z" />
    <glyph glyph-name="Thorn" unicode="&#xde;" horiz-adv-x="584" 
d="M54 -3h-13q0 49 58 295t58 297q0 16 -10.5 37t-20.5 34l-10 13l3 20q56 17 220 17q18 -16 18 -73q0 -8 -4 -40q10 1 29 1q225 0 225 -170q0 -112 -81.5 -189.5t-235.5 -77.5h-32q-16 -86 -16 -144q-46 -20 -188 -20zM399.5 500.5q-12.5 23.5 -31 23.5t-31.5 -5
q-61 -264 -63 -274h4q62 0 98 54.5t36 140.5q0 37 -12.5 60.5z" />
    <glyph glyph-name="germandbls" unicode="&#xdf;" horiz-adv-x="663" 
d="M669 154q0 -75 -64 -120t-147 -45q-54 0 -108 28.5t-54 53.5q0 18 35 57t64 46q19 -6 46.5 -35t49.5 -73q26 4 26 22q0 42 -89 128q-33 32 -61 76.5t-28 76.5t12 49.5t29 31t34 30.5q42 39 42 119q0 31 -12 48.5t-34 17.5q-40 0 -69 -114.5t-44 -256.5t-42 -278.5
t-63 -170.5q-39 0 -91.5 10t-75.5 22q64 183 100 475q-51 -3 -78 -9q-1 12 -1 30t7 58h84q35 174 102.5 237t199.5 63q113 0 167 -51q31 -30 31 -70t-19 -70t-42.5 -46t-42.5 -37t-19 -43t24 -53.5t53.5 -60t53.5 -69t24 -77.5z" />
    <glyph glyph-name="agrave" unicode="&#xe0;" horiz-adv-x="531" 
d="M231 696q46 0 259 -149l-26 -48q-146 52 -309 91q36 106 76 106zM482 250.5q-15 -89.5 -15 -125t11 -35.5l50 14l18 -50q-32 -25 -81.5 -45.5t-87.5 -20.5q-65 0 -82 56q-79 -56 -139.5 -56t-93.5 44t-33 126q0 113 58 199t153 86q52 0 106 -29q8 18 13 26q72 0 159 -35
q-21 -65 -36 -154.5zM224 107q7 -13 26 -13t37 15q4 116 38 243q-15 9 -34.5 9t-35 -22t-23.5 -55q-15 -63 -15 -113.5t7 -63.5z" />
    <glyph glyph-name="aacute" unicode="&#xe1;" horiz-adv-x="531" 
d="M516 614q0 -35 -37 -51q-56 -26 -260 -62l-17 50q123 60 274 156q11 -15 25.5 -47t14.5 -46zM482 250.5q-15 -89.5 -15 -125t11 -35.5l50 14l18 -50q-32 -25 -81.5 -45.5t-87.5 -20.5q-65 0 -82 56q-79 -56 -139.5 -56t-93.5 44t-33 126q0 113 58 199t153 86
q52 0 106 -29q8 18 13 26q72 0 159 -35q-21 -65 -36 -154.5zM224 107q7 -13 26 -13t37 15q4 116 38 243q-15 9 -34.5 9t-35 -22t-23.5 -55q-15 -63 -15 -113.5t7 -63.5z" />
    <glyph glyph-name="acircumflex" unicode="&#xe2;" horiz-adv-x="531" 
d="M283.5 652.5q82.5 51.5 116 51.5t78.5 -60t67 -105l-42 -36q-90 59 -139 80q-78 -23 -190 -82l-32 47q59 53 141.5 104.5zM482 250.5q-15 -89.5 -15 -125t11 -35.5l50 14l18 -50q-32 -25 -81.5 -45.5t-87.5 -20.5q-65 0 -82 56q-79 -56 -139.5 -56t-93.5 44t-33 126
q0 113 58 199t153 86q52 0 106 -29q8 18 13 26q72 0 159 -35q-21 -65 -36 -154.5zM224 107q7 -13 26 -13t37 15q4 116 38 243q-15 9 -34.5 9t-35 -22t-23.5 -55q-15 -63 -15 -113.5t7 -63.5z" />
    <glyph glyph-name="atilde" unicode="&#xe3;" horiz-adv-x="526" 
d="M441 528q-21 0 -87 16t-87.5 16t-35.5 -9.5t-28 -35.5l-52 12q14 151 116 151q22 0 87.5 -16t88.5 -16t34.5 7.5t23.5 29.5l50 -10q-14 -145 -110 -145zM482 250.5q-15 -89.5 -15 -125t11 -35.5l50 14l18 -50q-32 -25 -81.5 -45.5t-87.5 -20.5q-65 0 -82 56
q-79 -56 -139.5 -56t-93.5 44t-33 126q0 113 58 199t153 86q52 0 106 -29q8 18 13 26q72 0 159 -35q-21 -65 -36 -154.5zM224 107q7 -13 26 -13t37 15q4 116 38 243q-15 9 -34.5 9t-35 -22t-23.5 -55q-15 -63 -15 -113.5t7 -63.5z" />
    <glyph glyph-name="adieresis" unicode="&#xe4;" horiz-adv-x="531" 
d="M166 550q-21 20 -21 51.5t26 53t63 21.5t57.5 -17.5t20.5 -49.5t-25.5 -55.5t-62.5 -23.5t-58 20zM377 550q-21 20 -21 51.5t26 53t63 21.5t57.5 -17.5t20.5 -49.5t-25.5 -55.5t-62.5 -23.5t-58 20zM482 250.5q-15 -89.5 -15 -125t11 -35.5l50 14l18 -50
q-32 -25 -81.5 -45.5t-87.5 -20.5q-65 0 -82 56q-79 -56 -139.5 -56t-93.5 44t-33 126q0 113 58 199t153 86q52 0 106 -29q8 18 13 26q72 0 159 -35q-21 -65 -36 -154.5zM224 107q7 -13 26 -13t37 15q4 116 38 243q-15 9 -34.5 9t-35 -22t-23.5 -55q-15 -63 -15 -113.5
t7 -63.5z" />
    <glyph glyph-name="aring" unicode="&#xe5;" horiz-adv-x="531" 
d="M248 547.5q-31 31.5 -31 80t31 79t89 30.5t89 -30.5t31 -79t-31 -80t-89 -31.5t-89 31.5zM292 627q0 -19 12 -31t33 -12q41 0 41 43t-41 43q-21 0 -33 -12t-12 -31zM482 250.5q-15 -89.5 -15 -125t11 -35.5l50 14l18 -50q-32 -25 -81.5 -45.5t-87.5 -20.5q-65 0 -82 56
q-79 -56 -139.5 -56t-93.5 44t-33 126q0 113 58 199t153 86q52 0 106 -29q8 18 13 26q72 0 159 -35q-21 -65 -36 -154.5zM224 107q7 -13 26 -13t37 15q4 116 38 243q-15 9 -34.5 9t-35 -22t-23.5 -55q-15 -63 -15 -113.5t7 -63.5z" />
    <glyph glyph-name="ae" unicode="&#xe6;" horiz-adv-x="637" 
d="M215 443q53 0 105 -30q5 13 13 27q54 -2 99 -15q44 18 100 18t92 -29t36 -73.5t-23 -75.5t-55 -47q-63 -33 -120 -42l-23 -3q0 -45 19 -70t47 -25q50 0 90 30l13 9l29 -44q-54 -54 -137 -76q-35 -9 -69 -9q-87 0 -127 63q-83 -63 -158 -63q-46 0 -81.5 40t-35.5 126
q0 135 53.5 212t132.5 77zM275 173q0 99 25 183q-22 9 -35 9q-23 0 -39.5 -63.5t-16.5 -138t29 -74.5q17 0 44 16q-7 28 -7 68zM487 274q20 30 20 67.5t-21 37.5q-25 0 -36 -51.5t-11 -91.5q28 8 48 38z" />
    <glyph glyph-name="ccedilla" unicode="&#xe7;" horiz-adv-x="415" 
d="M282 376q-31 0 -53 -55t-22 -111q0 -123 71 -123q45 0 102 43l32 -44q-77 -83 -188 -96q-41 -47 -41 -85q0 -18 15 -18q29 0 68 23l28 -41q-21 -24 -66 -45.5t-80.5 -21.5t-57.5 19.5t-22 51t25 64t57 56.5q-59 12 -94.5 58.5t-35.5 127.5q0 116 71.5 190t187.5 74
q75 0 118 -30.5t43 -77t-28 -80.5q-33 0 -71.5 12.5t-61.5 31.5l15 75q-6 2 -12 2z" />
    <glyph glyph-name="egrave" unicode="&#xe8;" horiz-adv-x="430" 
d="M20 177q0 128 75.5 197t188.5 69q75 0 121.5 -33.5t46.5 -88.5q0 -40 -25 -72t-61 -49q-72 -34 -132 -42l-25 -4q11 -66 68 -66q22 0 50.5 10.5t46.5 21.5l17 10l32 -43l-11 -11q-6 -6 -28.5 -23.5t-47.5 -30.5q-64 -34 -143 -34t-126 49t-47 140zM292 347q0 23 -18 23
q-24 0 -45 -39.5t-24 -110.5q29 4 58 47.5t29 79.5zM183 696q46 0 259 -149l-26 -48q-146 52 -309 91q36 106 76 106z" />
    <glyph glyph-name="eacute" unicode="&#xe9;" horiz-adv-x="430" 
d="M20 177q0 128 75.5 197t188.5 69q75 0 121.5 -33.5t46.5 -88.5q0 -40 -25 -72t-61 -49q-72 -34 -132 -42l-25 -4q11 -66 68 -66q22 0 50.5 10.5t46.5 21.5l17 10l32 -43l-11 -11q-6 -6 -28.5 -23.5t-47.5 -30.5q-64 -34 -143 -34t-126 49t-47 140zM292 347q0 23 -18 23
q-24 0 -45 -39.5t-24 -110.5q29 4 58 47.5t29 79.5zM453 614q0 -35 -37 -51q-56 -26 -260 -62l-17 50q123 60 274 156q11 -15 25.5 -47t14.5 -46z" />
    <glyph glyph-name="ecircumflex" unicode="&#xea;" horiz-adv-x="430" 
d="M20 177q0 128 75.5 197t188.5 69q75 0 121.5 -33.5t46.5 -88.5q0 -40 -25 -72t-61 -49q-72 -34 -132 -42l-25 -4q11 -66 68 -66q22 0 50.5 10.5t46.5 21.5l17 10l32 -43l-11 -11q-6 -6 -28.5 -23.5t-47.5 -30.5q-64 -34 -143 -34t-126 49t-47 140zM292 347q0 23 -18 23
q-24 0 -45 -39.5t-24 -110.5q29 4 58 47.5t29 79.5zM227.5 652.5q82.5 51.5 116 51.5t78.5 -60t67 -105l-42 -36q-90 59 -139 80q-78 -23 -190 -82l-32 47q59 53 141.5 104.5z" />
    <glyph glyph-name="edieresis" unicode="&#xeb;" horiz-adv-x="430" 
d="M20 177q0 128 75.5 197t188.5 69q75 0 121.5 -33.5t46.5 -88.5q0 -40 -25 -72t-61 -49q-72 -34 -132 -42l-25 -4q11 -66 68 -66q22 0 50.5 10.5t46.5 21.5l17 10l32 -43l-11 -11q-6 -6 -28.5 -23.5t-47.5 -30.5q-64 -34 -143 -34t-126 49t-47 140zM292 347q0 23 -18 23
q-24 0 -45 -39.5t-24 -110.5q29 4 58 47.5t29 79.5zM121 550q-21 20 -21 51.5t26 53t63 21.5t57.5 -17.5t20.5 -49.5t-25.5 -55.5t-62.5 -23.5t-58 20zM332 550q-21 20 -21 51.5t26 53t63 21.5t57.5 -17.5t20.5 -49.5t-25.5 -55.5t-62.5 -23.5t-58 20z" />
    <glyph glyph-name="igrave" unicode="&#xec;" horiz-adv-x="300" 
d="M115 695q20 0 64 -26t78 -51.5t93 -71.5l-26 -48q-186 72 -285 95q35 102 76 102zM244 238.5q-25 -92.5 -25 -120.5t11 -28t40 10l9 4l18 -50q-34 -26 -84.5 -46t-91.5 -20t-64.5 23t-23.5 66.5t24.5 133t24.5 113.5q0 37 -26 70l-8 11l3 17q52 16 202 16
q16 -18 16 -62.5t-25 -137z" />
    <glyph glyph-name="iacute" unicode="&#xed;" horiz-adv-x="300" 
d="M357 616q0 -34 -37 -50q-28 -12 -104 -32t-138 -30l-17 50q135 70 256 150q11 -16 25.5 -45.5t14.5 -42.5zM244 238.5q-25 -92.5 -25 -120.5t11 -28t40 10l9 4l18 -50q-34 -26 -84.5 -46t-91.5 -20t-64.5 23t-23.5 66.5t24.5 133t24.5 113.5q0 37 -26 70l-8 11l3 17
q52 16 202 16q16 -18 16 -62.5t-25 -137z" />
    <glyph glyph-name="icircumflex" unicode="&#xee;" horiz-adv-x="300" 
d="M241 704q22 0 65 -62t62 -103l-42 -36q-92 66 -122 80q-61 -20 -168 -82l-32 47q56 55 129.5 105.5t107.5 50.5zM244 238.5q-25 -92.5 -25 -120.5t11 -28t40 10l9 4l18 -50q-34 -26 -84.5 -46t-91.5 -20t-64.5 23t-23.5 66.5t24.5 133t24.5 113.5q0 37 -26 70l-8 11l3 17
q52 16 202 16q16 -18 16 -62.5t-25 -137z" />
    <glyph glyph-name="idieresis" unicode="&#xef;" horiz-adv-x="300" 
d="M57 550q-19 20 -19 51.5t24 53t57.5 21.5t52 -17.5t18.5 -49.5t-23 -55.5t-57 -23.5t-53 20zM242 550q-19 20 -19 51.5t24 53t57.5 21.5t52 -17.5t18.5 -49.5t-23.5 -55.5t-57 -23.5t-52.5 20zM244 238.5q-25 -92.5 -25 -120.5t11 -28t40 10l9 4l18 -50
q-34 -26 -84.5 -46t-91.5 -20t-64.5 23t-23.5 66.5t24.5 133t24.5 113.5q0 37 -26 70l-8 11l3 17q52 16 202 16q16 -18 16 -62.5t-25 -137z" />
    <glyph glyph-name="eth" unicode="&#xf0;" horiz-adv-x="490" 
d="M497 301q0 -172 -118 -264q-63 -49 -157.5 -49t-148.5 58.5t-54 149.5t65.5 169t168.5 78q23 0 42 -4q-10 56 -27 96l-117 -35q-8 8 -15 30t-7 38l107 31q-32 51 -85 95l27 40q96 -28 174 -100l128 38q5 -7 10.5 -33t5.5 -35l-92 -28q93 -126 93 -275zM306 298
q0 23 -2 69h-6q-32 0 -56 -31q-45 -60 -45 -170q0 -41 10.5 -71t29.5 -30q34 0 51.5 69.5t17.5 163.5z" />
    <glyph glyph-name="ntilde" unicode="&#xf1;" horiz-adv-x="554" 
d="M52 -6h-17q0 62 28.5 188t28.5 145t-9 37t-18 27l-9 9l2 15q59 19 206 19q10 -23 14 -48q91 56 153 56q42 0 66 -27.5t24 -66t-22 -123.5t-22 -110.5t7 -25.5l53 14l18 -50q-32 -24 -83 -44.5t-94 -20.5q-86 0 -86 88q0 38 21 124t21 107.5t-14 21.5q-18 0 -48 -20
q-4 -18 -20 -87q-32 -145 -32 -209q-49 -19 -168 -19zM433 522q-21 0 -87 16t-87.5 16t-35.5 -9.5t-28 -35.5l-52 12q14 151 116 151q22 0 87.5 -16t88.5 -16t34.5 7.5t23.5 29.5l50 -10q-14 -145 -110 -145z" />
    <glyph glyph-name="ograve" unicode="&#xf2;" horiz-adv-x="446" 
d="M204 696q46 0 259 -149l-26 -48q-146 52 -309 91q36 106 76 106zM351 63q-65 -75 -152 -75t-133 49t-46 135q0 115 64 191.5t177 76.5l40 -4q24 7 46 7q89 0 95 -131q42 2 78 13l14 4q7 -7 10 -42l1 -11q-43 -23 -108 -36q-21 -102 -86 -177zM208 188q0 -100 47 -100
q33 0 67.5 42t47.5 102q-102 0 -102 98q0 17 3 35q-10 0 -15 -3q-17 -17 -32.5 -73t-15.5 -101z" />
    <glyph glyph-name="oacute" unicode="&#xf3;" horiz-adv-x="446" 
d="M351 63q-65 -75 -152 -75t-133 49t-46 135q0 115 64 191.5t177 76.5l40 -4q24 7 46 7q89 0 95 -131q42 2 78 13l14 4q7 -7 10 -42l1 -11q-43 -23 -108 -36q-21 -102 -86 -177zM208 188q0 -100 47 -100q33 0 67.5 42t47.5 102q-102 0 -102 98q0 17 3 35q-10 0 -15 -3
q-17 -17 -32.5 -73t-15.5 -101zM467 614q0 -35 -37 -51q-56 -26 -260 -62l-17 50q123 60 274 156q11 -15 25.5 -47t14.5 -46z" />
    <glyph glyph-name="ocircumflex" unicode="&#xf4;" horiz-adv-x="446" 
d="M351 63q-65 -75 -152 -75t-133 49t-46 135q0 115 64 191.5t177 76.5l40 -4q24 7 46 7q89 0 95 -131q42 2 78 13l14 4q7 -7 10 -42l1 -11q-43 -23 -108 -36q-21 -102 -86 -177zM208 188q0 -100 47 -100q33 0 67.5 42t47.5 102q-102 0 -102 98q0 17 3 35q-10 0 -15 -3
q-17 -17 -32.5 -73t-15.5 -101zM226.5 652.5q82.5 51.5 116 51.5t78.5 -60t67 -105l-42 -36q-90 59 -139 80q-78 -23 -190 -82l-32 47q59 53 141.5 104.5z" />
    <glyph glyph-name="otilde" unicode="&#xf5;" horiz-adv-x="446" 
d="M351 63q-65 -75 -152 -75t-133 49t-46 135q0 115 64 191.5t177 76.5l40 -4q24 7 46 7q89 0 95 -131q42 2 78 13l14 4q7 -7 10 -42l1 -11q-43 -23 -108 -36q-21 -102 -86 -177zM208 188q0 -100 47 -100q33 0 67.5 42t47.5 102q-102 0 -102 98q0 17 3 35q-10 0 -15 -3
q-17 -17 -32.5 -73t-15.5 -101zM372 528q-21 0 -87 16t-87.5 16t-35.5 -9.5t-28 -35.5l-52 12q14 151 116 151q22 0 87.5 -16t88.5 -16t34.5 7.5t23.5 29.5l50 -10q-14 -145 -110 -145z" />
    <glyph glyph-name="odieresis" unicode="&#xf6;" horiz-adv-x="446" 
d="M351 63q-65 -75 -152 -75t-133 49t-46 135q0 115 64 191.5t177 76.5l40 -4q24 7 46 7q89 0 95 -131q42 2 78 13l14 4q7 -7 10 -42l1 -11q-43 -23 -108 -36q-21 -102 -86 -177zM208 188q0 -100 47 -100q33 0 67.5 42t47.5 102q-102 0 -102 98q0 17 3 35q-10 0 -15 -3
q-17 -17 -32.5 -73t-15.5 -101zM120 550q-21 20 -21 51.5t26 53t63 21.5t57.5 -17.5t20.5 -49.5t-25.5 -55.5t-62.5 -23.5t-58 20zM331 550q-21 20 -21 51.5t26 53t63 21.5t57.5 -17.5t20.5 -49.5t-25.5 -55.5t-62.5 -23.5t-58 20z" />
    <glyph glyph-name="divide" unicode="&#xf7;" horiz-adv-x="546" 
d="M67 232q0 60 9 92h411q0 -72 -6 -92h-414zM207 44.5q-17 17.5 -17 46.5t23 49.5t55 20.5t48.5 -17t16.5 -45t-23 -50t-54.5 -22t-48.5 17.5zM224 408.5q-17 17.5 -17 46.5t23 49.5t55 20.5t48.5 -17t16.5 -45t-23 -50t-54.5 -22t-48.5 17.5z" />
    <glyph glyph-name="oslash" unicode="&#xf8;" horiz-adv-x="444" 
d="M275 443h7q11 42 23 87h6q35 0 82 -30l-27 -79q69 -38 69 -135q0 -51 -21.5 -107.5t-66.5 -106t-101 -66.5q-17 -62 -23 -88h-18t-53 10l-19 7l22 66q-62 11 -98.5 57t-36.5 120q0 109 67.5 187t187.5 78zM196.5 295.5q-25.5 -69.5 -25.5 -122.5t17 -72q33 103 79 282
q-45 -18 -70.5 -87.5zM331.5 184q23.5 57 23.5 99t-12 68q-38 -115 -73 -249q38 25 61.5 82z" />
    <glyph glyph-name="ugrave" unicode="&#xf9;" horiz-adv-x="542" 
d="M61.5 219.5q26.5 96.5 26.5 118t-36 63.5l2 15q91 20 213 20q8 -19 8 -56t-27.5 -139.5t-27.5 -117.5q0 -29 25 -29q17 0 43 13q3 16 18 84q35 151 35 226q46 20 157 20h27q0 -45 -26.5 -176t-27 -151t8.5 -20l49 13l18 -50q-29 -23 -84 -44t-97 -21q-62 0 -77 50
q-83 -50 -160 -50q-48 0 -71 25.5t-23 67.5t26.5 138.5zM239 696q46 0 259 -149l-26 -48q-146 52 -309 91q36 106 76 106z" />
    <glyph glyph-name="uacute" unicode="&#xfa;" horiz-adv-x="542" 
d="M61.5 219.5q26.5 96.5 26.5 118t-36 63.5l2 15q91 20 213 20q8 -19 8 -56t-27.5 -139.5t-27.5 -117.5q0 -29 25 -29q17 0 43 13q3 16 18 84q35 151 35 226q46 20 157 20h27q0 -45 -26.5 -176t-27 -151t8.5 -20l49 13l18 -50q-29 -23 -84 -44t-97 -21q-62 0 -77 50
q-83 -50 -160 -50q-48 0 -71 25.5t-23 67.5t26.5 138.5zM516 614q0 -35 -37 -51q-56 -26 -260 -62l-17 50q123 60 274 156q11 -15 25.5 -47t14.5 -46z" />
    <glyph glyph-name="ucircumflex" unicode="&#xfb;" horiz-adv-x="542" 
d="M61.5 219.5q26.5 96.5 26.5 118t-36 63.5l2 15q91 20 213 20q8 -19 8 -56t-27.5 -139.5t-27.5 -117.5q0 -29 25 -29q17 0 43 13q3 16 18 84q35 151 35 226q46 20 157 20h27q0 -45 -26.5 -176t-27 -151t8.5 -20l49 13l18 -50q-29 -23 -84 -44t-97 -21q-62 0 -77 50
q-83 -50 -160 -50q-48 0 -71 25.5t-23 67.5t26.5 138.5zM275.5 652.5q82.5 51.5 116 51.5t78.5 -60t67 -105l-42 -36q-90 59 -139 80q-78 -23 -190 -82l-32 47q59 53 141.5 104.5z" />
    <glyph glyph-name="udieresis" unicode="&#xfc;" horiz-adv-x="542" 
d="M61.5 219.5q26.5 96.5 26.5 118t-36 63.5l2 15q91 20 213 20q8 -19 8 -56t-27.5 -139.5t-27.5 -117.5q0 -29 25 -29q17 0 43 13q3 16 18 84q35 151 35 226q46 20 157 20h27q0 -45 -26.5 -176t-27 -151t8.5 -20l49 13l18 -50q-29 -23 -84 -44t-97 -21q-62 0 -77 50
q-83 -50 -160 -50q-48 0 -71 25.5t-23 67.5t26.5 138.5zM389 550q-21 20 -21 51.5t26 53t63 21.5t57.5 -17.5t20.5 -49.5t-25.5 -55.5t-62.5 -23.5t-58 20zM178 550q-21 20 -21 51.5t26 53t63 21.5t57.5 -17.5t20.5 -49.5t-25.5 -55.5t-62.5 -23.5t-58 20z" />
    <glyph glyph-name="yacute" unicode="&#xfd;" horiz-adv-x="500" 
d="M499 436h15q-10 -40 -34.5 -185t-47.5 -223q-35 -117 -95 -184.5t-158 -67.5q-43 0 -74.5 21.5t-31.5 55.5t16.5 57t48.5 38q50 25 129 43q2 8 4.5 26.5t3.5 22.5q-78 -42 -150 -42q-48 0 -71 25.5t-23 63.5t22 134.5t22 133.5t-5 55q118 25 183 25q8 -14 8 -49
t-22.5 -136.5t-22.5 -119.5q0 -31 30 -31q17 0 39 9q8 51 22.5 155.5t20.5 143.5q26 12 78.5 20.5t92.5 8.5zM489 614q0 -35 -37 -51q-56 -26 -260 -62l-17 50q123 60 274 156q11 -15 25.5 -47t14.5 -46zM144 -127q2 -23 23.5 -23t46 21t39.5 60q-109 -19 -109 -58z" />
    <glyph glyph-name="thorn" unicode="&#xfe;" horiz-adv-x="483" 
d="M-27 -178q0 74 69 409t69 431q0 16 -5 41q99 31 186 31q5 -14 5 -37q0 -83 -42 -278q46 23 96 23t87.5 -42.5t37.5 -122.5q0 -126 -53 -207.5t-154 -81.5q-52 0 -98 18q-16 -109 -16 -200q-75 -25 -176 -30q-6 12 -6 46zM217 75q26 0 45 39q34 70 34 172q0 58 -29 58
q-12 0 -30 -6q-44 -204 -54 -257q22 -6 34 -6z" />
    <glyph glyph-name="ydieresis" unicode="&#xff;" horiz-adv-x="500" 
d="M499 436h15q-10 -40 -34.5 -185t-47.5 -223q-35 -117 -95 -184.5t-158 -67.5q-43 0 -74.5 21.5t-31.5 55.5t16.5 57t48.5 38q50 25 129 43q2 8 4.5 26.5t3.5 22.5q-78 -42 -150 -42q-48 0 -71 25.5t-23 63.5t22 134.5t22 133.5t-5 55q118 25 183 25q8 -14 8 -49
t-22.5 -136.5t-22.5 -119.5q0 -31 30 -31q17 0 39 9q8 51 22.5 155.5t20.5 143.5q26 12 78.5 20.5t92.5 8.5zM361 550q-21 20 -21 51.5t26 53t63 21.5t57.5 -17.5t20.5 -49.5t-25.5 -55.5t-62.5 -23.5t-58 20zM150 550q-21 20 -21 51.5t26 53t63 21.5t57.5 -17.5t20.5 -49.5
t-25.5 -55.5t-62.5 -23.5t-58 20zM144 -127q2 -23 23.5 -23t46 21t39.5 60q-109 -19 -109 -58z" />
    <glyph glyph-name="hbar" unicode="&#x127;" horiz-adv-x="538" 
d="M327 734q7 -17 7 -51.5t-8 -82.5h123q0 -50 -5 -75h-131q-16 -75 -30 -132q86 49 135.5 49t73.5 -26.5t24 -66t-22 -124t-22 -110.5t8 -26l52 14l18 -50q-31 -23 -85.5 -44t-96.5 -21q-81 0 -81 92q0 42 21 124t21 103.5t-15 21.5q-21 0 -51 -20q-45 -191 -45 -266l1 -24
q-102 -27 -183 -27q-6 3 -6 39.5t18 120.5t45.5 196.5t39.5 176.5h-90q0 53 5 75h97q4 44 4 65.5t-4 41.5q97 27 182 27z" />
    <glyph glyph-name="Itilde" unicode="&#x128;" horiz-adv-x="369" 
d="M361 761q-22 0 -91.5 14.5t-82.5 14.5q-38 0 -61 -37l-53 14q14 137 117 137q22 0 87.5 -14.5t84.5 -14.5t28.5 6t20.5 24l54 -12q-14 -132 -104 -132zM245 127q0 -28 13 -28q22 0 54 13l22 -56q-92 -68 -178 -68q-50 0 -79.5 28.5t-29.5 80.5t51 235.5t56 255.5
q0 17 -11 37t-21 32l-11 12l2 20q63 21 223 21q16 -30 16 -64q0 -58 -53.5 -253t-53.5 -266z" />
    <glyph glyph-name="itilde" unicode="&#x129;" horiz-adv-x="300" 
d="M271 530q-18 0 -71.5 15t-72 15t-31 -9.5t-24.5 -35.5l-49 12q13 149 104 149q19 0 70.5 -15t77.5 -15t43 37l47 -10q-11 -143 -94 -143zM244 238.5q-25 -92.5 -25 -120.5t11 -28t40 10l9 4l18 -50q-34 -26 -84.5 -46t-91.5 -20t-64.5 23t-23.5 66.5t24.5 133t24.5 113.5
q0 37 -26 70l-8 11l3 17q52 16 202 16q16 -18 16 -62.5t-25 -137z" />
    <glyph glyph-name="dotlessi" unicode="&#x131;" horiz-adv-x="300" 
d="M244 238.5q-25 -92.5 -25 -120.5t11 -28t40 10l9 4l18 -50q-34 -26 -84.5 -46t-91.5 -20t-64.5 23t-23.5 66.5t24.5 133t24.5 113.5q0 37 -26 70l-8 11l3 17q52 16 202 16q16 -18 16 -62.5t-25 -137z" />
    <glyph glyph-name="IJ" unicode="&#x132;" horiz-adv-x="787" 
d="M540 709l213 -4l105 4q2 -22 2 -47.5t-11 -34.5t-39.5 -9t-44.5 1q-35 -296 -58 -414q-30 -125 -75 -171q-18 -20 -48.5 -33.5t-74.5 -13.5t-97 28.5t-85 66.5l38 49q12 -10 36.5 -22.5t43 -12.5t33.5 20q37 47 64 254q19 142 19 239v17q-72 -2 -107 -13q-14 42 -16 85
q25 11 102 11zM246 122q0 -28 12.5 -28t41.5 8l20 -50q-90 -64 -165 -64q-50 0 -79.5 28.5t-29.5 78.5t49.5 235t54.5 258q0 17 -11 37t-21 32l-11 12l2 20q70 21 230 21q16 -30 16 -64q0 -57 -54.5 -253t-54.5 -271z" />
    <glyph glyph-name="ij" unicode="&#x133;" horiz-adv-x="619" 
d="M314 -224q-103 0 -180 90l32 43q47 -32 83 -32t57 49t49 192.5t28 207.5q0 15 -10 34.5t-20 31.5l-10 12l2 16q76 18 214 18q17 -17 17 -64.5t-24.5 -182t-48.5 -227.5q-21 -94 -72 -141t-117 -47zM433.5 540q-25.5 24 -25.5 61.5t31.5 63t76.5 25.5t70 -21t25 -59
t-30.5 -66t-76 -28t-71 24zM122.5 540q-25.5 24 -25.5 61.5t31.5 63t76.5 25.5t70 -21t25 -59t-30.5 -66t-76 -28t-71 24zM244 238.5q-25 -92.5 -25 -120.5t11 -28t40 10l9 4l18 -50q-34 -26 -84.5 -46t-91.5 -20t-64.5 23t-23.5 66.5t24.5 133t24.5 113.5q0 37 -26 70
l-8 11l3 17q52 16 202 16q16 -18 16 -62.5t-25 -137z" />
    <glyph glyph-name="Jcircumflex" unicode="&#x134;" horiz-adv-x="437" 
d="M195 709l213 -4l99 4q2 -22 2 -47.5t-11 -34.5t-41 -9t-47 1q-38 -391 -75 -493q-32 -90 -87 -120q-34 -19 -81.5 -19t-100.5 27.5t-84 64.5l36 51q12 -9 37.5 -21.5t44 -12.5t34.5 20q36 47 63 254q19 142 19 239v17q-72 -2 -107 -13q-14 42 -16 85q25 11 102 11z
M253 872q83 47 109 47t69 -48.5t71 -89.5l-35 -40q-91 45 -135 58q-52 -11 -190 -62l-27 46q55 42 138 89z" />
    <glyph glyph-name="jcircumflex" unicode="&#x135;" horiz-adv-x="305" 
d="M237 704q22 0 65 -62t62 -103l-42 -36q-92 66 -122 80q-61 -20 -168 -82l-32 47q56 55 129.5 105.5t107.5 50.5zM11 -224q-92 0 -170 80l32 43q42 -27 77.5 -27t61 46t51.5 192t26 216q0 15 -10 34.5t-20 31.5l-10 12l2 16q70 18 208 18q17 -17 17 -66.5t-18 -164.5
t-40 -200q-61 -231 -207 -231z" />
    <glyph glyph-name="kcommaaccent" unicode="&#x137;" horiz-adv-x="538" 
d="M143 661q0 26 -5 46q99 27 180 27q10 -12 10 -53q0 -73 -45 -280q80 42 141.5 42t94 -25t32.5 -70q0 -87 -129 -124q32 -138 62 -138l48 13l22 -49q-25 -20 -77 -41t-100 -21t-73 36t-32 94t-7 130q48 12 76 34.5t28 45t-24 22.5q-19 0 -44.5 -11t-37.5 -21
q-54 -228 -54 -305q-77 -17 -183 -17q-1 8 -1 19q0 52 59 304.5t59 341.5zM338 -109q0 -72 -95 -169l-51 24q21 45 25 81l-63 55q12 30 35 56.5t45 30.5q41 0 72.5 -22t31.5 -56z" />
    <glyph glyph-name="kgreenlandic" unicode="&#x138;" horiz-adv-x="549" 
d="M352 282.5q28 22.5 28 45t-24 22.5q-19 0 -44.5 -11t-37.5 -21q-4 -19 -20 -89q-34 -149 -34 -216q-49 -19 -168 -19h-17q0 62 28.5 188t28.5 145t-9 37t-18 27l-9 9l2 15q59 19 206 19q9 -20 13 -43l15 9q78 43 141.5 43t96 -25t32.5 -70q0 -87 -129 -124
q32 -138 62 -138l48 13l22 -49q-25 -20 -77 -41t-100 -21t-73 36t-32 94t-7 130q48 12 76 34.5z" />
    <glyph glyph-name="Ldotaccent" unicode="&#x13f;" horiz-adv-x="538" 
d="M394.5 323q-18.5 20 -18.5 52t25 54.5t59.5 22.5t52.5 -19t18 -50.5t-24.5 -55.5t-59 -24t-53 20zM387 -24q-42 0 -122.5 44t-93.5 47q-60 -79 -112 -79q-14 0 -42 39t-28 73q0 15 31 37.5t71 31.5q27 63 53.5 191t26.5 225q0 16 -10.5 36t-20.5 32l-11 12l3 20
q55 25 228 25q16 -25 16 -85t-53 -208t-106 -257q100 -26 191 -26q21 0 34.5 10t29.5 42l55 -19q-16 -95 -48.5 -143t-91.5 -48z" />
    <glyph glyph-name="ldot" unicode="&#x140;" horiz-adv-x="424" 
d="M312.5 314q-18.5 20 -18.5 52t25 54.5t59.5 22.5t52.5 -19t18 -50.5t-24.5 -55.5t-59 -24t-53 20zM216 8q-52 -20 -94.5 -20t-69.5 24.5t-27 70.5t50.5 256.5t50.5 312.5q0 22 -6 56q94 26 182 26q9 -16 9 -52q0 -68 -50.5 -296.5t-50.5 -263.5t12 -35q10 0 43 13l11 5
l24 -49q-32 -28 -84 -48z" />
    <glyph glyph-name="Lslash" unicode="&#x141;" horiz-adv-x="537" 
d="M341 430l143 49q7 -14 13 -42.5t6 -37.5q-18 -5 -196 -61q-40 -103 -77 -178q100 -26 191 -26q21 0 34.5 10t29.5 42l55 -19q-16 -95 -48.5 -143t-91.5 -48q-42 0 -122.5 44t-93.5 47q-60 -79 -112 -79q-14 0 -42 39t-28 73q0 15 31 37.5t71 31.5q23 55 41 135l-98 -36
q-6 5 -14 32t-9 48q54 18 139 43q21 115 21 194q0 16 -10.5 36t-21.5 32l-10 12l3 20q55 25 228 25q16 -25 16 -83t-48 -197z" />
    <glyph glyph-name="lslash" unicode="&#x142;" horiz-adv-x="377" 
d="M304 460l89 36q8 -12 17.5 -35.5t10.5 -34.5q-15 -6 -34.5 -13t-48 -17.5t-51.5 -18.5q-49 -218 -49 -254t12 -36q10 0 43 13l11 5l24 -49q-32 -28 -84 -48t-94.5 -20t-69.5 24.5t-27 70.5t45 234l-69 -30q-21 29 -30 72q15 6 57 22l63 24q35 158 35 247q0 22 -6 56
q94 26 182 26q9 -16 9 -64t-35 -210z" />
    <glyph glyph-name="Nacute" unicode="&#x143;" horiz-adv-x="689" 
d="M58 -6h-17q0 60 56 306t56 285q0 17 -10.5 38t-20.5 33l-10 13l3 20q62 21 216 21q18 -38 18 -86v-2q120 88 210 88q53 0 87 -31.5t34 -90t-46 -235.5t-46 -215.5t13 -38.5q18 0 54 13l21 -57q-98 -67 -182 -67q-48 0 -73.5 25.5t-25.5 84.5t43.5 224.5t43.5 205.5
q0 51 -45 51q-33 0 -99 -41q-9 -48 -38 -166q-64 -269 -64 -352q-44 -26 -178 -26zM662 842q0 -32 -38 -46q-49 -21 -279 -56l-19 54q27 12 77 34t79 35q83 37 140 70q11 -16 25.5 -46.5t14.5 -44.5z" />
    <glyph glyph-name="nacute" unicode="&#x144;" horiz-adv-x="554" 
d="M52 -6h-17q0 62 28.5 188t28.5 145t-9 37t-18 27l-9 9l2 15q59 19 206 19q10 -23 14 -48q91 56 153 56q42 0 66 -27.5t24 -66t-22 -123.5t-22 -110.5t7 -25.5l53 14l18 -50q-32 -24 -83 -44.5t-94 -20.5q-86 0 -86 88q0 38 21 124t21 107.5t-14 21.5q-18 0 -48 -20
q-4 -18 -20 -87q-32 -145 -32 -209q-49 -19 -168 -19zM503 614q0 -35 -37 -51q-56 -26 -260 -62l-17 50q123 60 274 156q11 -15 25.5 -47t14.5 -46z" />
    <glyph glyph-name="OE" unicode="&#x152;" horiz-adv-x="875" 
d="M610 389q74 10 133.5 10t88.5 -9q0 -43 -12 -72l-5 -11q-57 9 -102 9l-113 -7q-8 -51 -8 -106t22 -84.5t70 -29.5t172 48l22 -60q-40 -29 -115.5 -59t-162.5 -30t-145 44q-72 -44 -162 -44q-110 0 -177.5 77t-67.5 213q0 171 95 297q46 61 117.5 98t158.5 37l170 -5
q181 0 285 3q3 -27 3 -50q0 -45 -43 -45q-8 0 -59.5 4t-78 4t-40.5 -2q-28 -109 -46 -230zM410 636q-71 0 -114 -105.5t-43 -277.5q0 -104 17 -144t51 -40q21 0 40.5 10.5t28.5 20.5l9 11v26q1 107 25.5 267t41.5 218q-26 14 -56 14z" />
    <glyph glyph-name="oe" unicode="&#x153;" horiz-adv-x="714" 
d="M251 443q36 0 62 -15q12 3 38 3t44 -23t19 -51q77 86 193 86q54 0 92 -25.5t38 -68t-23 -71.5t-56 -44q-66 -32 -119 -39l-23 -3q0 -52 18.5 -83t56.5 -31q20 0 43.5 10t37.5 20l13 9l29 -44q-10 -10 -27.5 -24t-71.5 -37.5t-108 -23.5t-93.5 31.5t-51.5 74.5
q-81 -106 -184 -106q-69 0 -113.5 49t-44.5 135q0 111 61.5 191t169.5 80zM274 379l-13 2q-21 0 -40 -60t-19 -123t13.5 -87t39.5 -24t51.5 29t40.5 75q-49 2 -73.5 34t-24.5 71t25 83zM562 379q-20 0 -33 -41.5t-13 -82.5q28 8 48 33.5t20 58t-22 32.5z" />
    <glyph glyph-name="Racute" unicode="&#x154;" horiz-adv-x="651" 
d="M237 19q-59 -26 -144 -26q-29 0 -52 5q0 66 56.5 297.5t56.5 291.5q0 24 -36 64l-11 13l3 22q136 24 302 24q100 0 158 -38.5t58 -112t-40 -134t-114 -94.5q33 -112 63 -175t49 -63q16 0 50 12l12 4l24 -54q-88 -67 -185.5 -67t-127.5 98q-26 86 -42 213h-35
q-45 -210 -45 -280zM632 842q0 -32 -38 -46q-49 -21 -279 -56l-19 54q27 12 77 34t79 35q83 37 140 70q11 -16 25.5 -46.5t14.5 -44.5zM323 386q32 0 55.5 20t35.5 52q22 63 22 122t-53 59q-16 0 -32 -3q-1 -31 -49 -248q7 -2 21 -2z" />
    <glyph glyph-name="Rcommaaccent" unicode="&#x156;" horiz-adv-x="651" 
d="M237 19q-59 -26 -144 -26q-29 0 -52 5q0 66 56.5 297.5t56.5 291.5q0 24 -36 64l-11 13l3 22q136 24 302 24q100 0 158 -38.5t58 -112t-40 -134t-114 -94.5q33 -112 63 -175t49 -63q16 0 50 12l12 4l24 -54q-88 -67 -185.5 -67t-127.5 98q-26 86 -42 213h-35
q-45 -210 -45 -280zM400 -104q0 -84 -101 -173l-51 25q20 44 25 84l-63 55q12 31 36.5 60t45.5 33q40 0 74 -25t34 -59zM323 386q32 0 55.5 20t35.5 52q22 63 22 122t-53 59q-16 0 -32 -3q-1 -31 -49 -248q7 -2 21 -2z" />
    <glyph glyph-name="rcommaaccent" unicode="&#x157;" horiz-adv-x="392" 
d="M49 -6h-8q-3 14 -3 43.5t24.5 152.5t24.5 140q0 32 -27 60l-9 10l2 15q60 19 199 19q13 -25 16 -59q60 68 105 68q35 0 53 -23.5t21 -77.5q-5 -7 -14.5 -17.5t-40 -29t-63.5 -22.5q-1 0 -13.5 22t-19.5 22t-33 -20l-11 -57q-29 -143 -29 -192l1 -37q-44 -17 -175 -17z
M213 -109q0 -72 -95 -169l-51 24q21 45 25 81l-63 55q12 30 35 56.5t45 30.5q41 0 72.5 -22t31.5 -56z" />
    <glyph glyph-name="Rcaron" unicode="&#x158;" horiz-adv-x="661" 
d="M237 19q-59 -26 -144 -26q-29 0 -52 5q0 66 56.5 297.5t56.5 291.5q0 24 -36 64l-11 13l3 22q136 24 302 24q100 0 158 -38.5t58 -112t-40 -134t-114 -94.5q33 -112 63 -175t49 -63q16 0 50 12l12 4l24 -54q-88 -67 -185.5 -67t-127.5 98q-26 86 -42 213h-35
q-45 -210 -45 -280zM533 788q-87 -44 -117.5 -44t-83 53t-76.5 88l39 37q109 -45 154 -59q71 14 204 61l29 -48q-62 -44 -149 -88zM323 386q32 0 55.5 20t35.5 52q22 63 22 122t-53 59q-16 0 -32 -3q-1 -31 -49 -248q7 -2 21 -2z" />
    <glyph glyph-name="rcaron" unicode="&#x159;" horiz-adv-x="392" 
d="M49 -6h-8q-3 14 -3 43.5t24.5 152.5t24.5 140q0 32 -27 60l-9 10l2 15q60 19 199 19q13 -25 16 -59q60 68 105 68q35 0 53 -23.5t21 -77.5q-5 -7 -14.5 -17.5t-40 -29t-63.5 -22.5q-1 0 -13.5 22t-19.5 22t-33 -20l-11 -57q-29 -143 -29 -192l1 -37q-44 -17 -175 -17z
M200 504q-28 0 -112 167l34 31q4 -3 16 -14t16.5 -15t14.5 -13t16 -13l15 -10q19 -14 30 -18q63 20 159 87l28 -40q-45 -50 -119 -106t-98 -56z" />
    <glyph glyph-name="dotlessj" unicode="&#x237;" horiz-adv-x="298" 
d="M11 -224q-92 0 -170 80l32 43q42 -27 77.5 -27t61 46t51.5 192t26 216q0 15 -10 34.5t-20 31.5l-10 12l2 16q70 18 208 18q17 -17 17 -66.5t-18 -164.5t-40 -200q-61 -231 -207 -231z" />
    <glyph glyph-name="circumflex" unicode="&#x2c6;" horiz-adv-x="583" 
d="M230.5 652.5q82.5 51.5 116 51.5t78.5 -60t67 -105l-42 -36q-90 59 -139 80q-78 -23 -190 -82l-32 47q59 53 141.5 104.5z" />
    <glyph glyph-name="caron" unicode="&#x2c7;" horiz-adv-x="626" 
d="M386.5 555.5q-89.5 -49.5 -117.5 -49.5t-77 57.5t-71 94.5l49 47q78 -54 132 -76q109 35 190 78l37 -56q-53 -46 -142.5 -95.5z" />
    <glyph glyph-name="ring" unicode="&#x2da;" horiz-adv-x="458" 
d="M152 547.5q-31 31.5 -31 80t31 79t89 30.5t89 -30.5t31 -79t-31 -80t-89 -31.5t-89 31.5zM196 627q0 -19 12 -31t33 -12q41 0 41 43t-41 43q-21 0 -33 -12t-12 -31z" />
    <glyph glyph-name="tilde" unicode="&#x2dc;" horiz-adv-x="605" 
d="M390 528q-21 0 -87 16t-87.5 16t-35.5 -9.5t-28 -35.5l-52 12q14 151 116 151q22 0 87.5 -16t88.5 -16t34.5 7.5t23.5 29.5l50 -10q-14 -145 -110 -145z" />
    <glyph glyph-name="dotaccentcmb" unicode="&#x307;" horiz-adv-x="388" 
d="M141.5 748q-20.5 20 -20.5 53.5t27.5 57t65 23.5t57.5 -19.5t20 -53t-27 -57.5t-64.5 -24t-58 20z" />
    <glyph glyph-name="endash" unicode="&#x2013;" horiz-adv-x="583" 
d="M51 239q0 57 3 92h489q0 -29 -3 -92h-489z" />
    <glyph glyph-name="emdash" unicode="&#x2014;" horiz-adv-x="984" 
d="M61 239q0 38 3 92h880q0 -50 -3 -92h-880z" />
    <glyph glyph-name="quoteleft" unicode="&#x2018;" horiz-adv-x="293" 
d="M82 518q0 45 40 114.5t73 102.5l54 -29q-39 -61 -49 -117l72 -50q0 -38 -20 -73.5t-52 -58.5q-118 19 -118 111z" />
    <glyph glyph-name="quoteright" unicode="&#x2019;" horiz-adv-x="293" 
d="M279 624q0 -45 -40 -114.5t-73 -102.5l-54 29q39 61 49 117l-72 50q0 38 20 73.5t52 58.5q118 -19 118 -111z" />
    <glyph glyph-name="quotesinglbase" unicode="&#x201a;" horiz-adv-x="307" 
d="M254 45q0 -45 -40 -114.5t-73 -102.5l-54 29q39 61 49 117l-72 50q0 38 20 73.5t52 58.5q118 -19 118 -111z" />
    <glyph glyph-name="quotedblleft" unicode="&#x201c;" horiz-adv-x="525" 
d="M315 518q0 45 40 114.5t73 102.5l54 -29q-42 -65 -51 -117l74 -50q0 -38 -20 -73.5t-52 -58.5q-118 19 -118 111zM101 518q0 45 40 114.5t73 102.5l54 -29q-42 -65 -51 -117l74 -50q0 -38 -20 -73.5t-52 -58.5q-118 19 -118 111z" />
    <glyph glyph-name="quotedblright" unicode="&#x201d;" horiz-adv-x="525" 
d="M279 624q0 -45 -40 -114.5t-73 -102.5l-54 29q39 61 49 117l-72 50q0 38 20 73.5t52 58.5q118 -19 118 -111zM493 624q0 -45 -40 -114.5t-73 -102.5l-54 29q39 61 49 117l-72 50q0 38 20 73.5t52 58.5q118 -19 118 -111z" />
    <glyph glyph-name="quotedblbase" unicode="&#x201e;" horiz-adv-x="513" 
d="M254 49q0 -45 -40 -114.5t-73 -102.5l-54 29q39 61 49 117l-72 50q0 38 20 73.5t52 58.5q118 -19 118 -111zM468 49q0 -45 -40 -114.5t-73 -102.5l-54 29q39 61 49 117l-72 50q0 38 20 73.5t52 58.5q118 -19 118 -111z" />
    <glyph glyph-name="bullet" unicode="&#x2022;" horiz-adv-x="452" 
d="M134 222q-37 39 -37 100t42 102t104.5 41t99 -37.5t36.5 -97t-42.5 -103.5t-104 -44t-98.5 39z" />
    <glyph glyph-name="guilsinglleft" unicode="&#x2039;" horiz-adv-x="347" 
d="M139 194.5q-70 70.5 -70 95t67 88.5t142 124l46 -41q-78 -111 -105 -166q25 -69 76 -159l-45 -41q-41 29 -111 99.5z" />
    <glyph glyph-name="guilsinglright" unicode="&#x203a;" horiz-adv-x="358" 
d="M239 400.5q70 -70.5 70 -95t-67 -88.5t-142 -124l-46 41q78 111 105 166q-25 69 -76 159l45 41q41 -29 111 -99.5z" />
    <glyph glyph-name="Euro" unicode="&#x20ac;" horiz-adv-x="620" 
d="M330 -12q-96 0 -161 65.5t-76 179.5q-60 -5 -82 -9q-2 25 -2 44.5t3 41.5h80q1 16 5 53q-28 -2 -65 -7q-3 14 -3 35t4 51h83q38 120 124 194t190.5 74t166.5 -39t62 -99.5t-34 -96.5q-40 0 -92 16t-78 39l19 97q-18 10 -44 10q-39 0 -74.5 -54t-53.5 -141h214
q-2 -29 -14 -64l-5 -13q-55 5 -105 5t-102 -2q-3 -29 -3 -58h212q-2 -22 -18 -64l-5 -13q-53 5 -95 5t-61.5 -0.5t-29.5 -0.5q9 -70 38 -104t71 -34q70 0 154 74l47 -47q-10 -15 -42 -43.5t-61.5 -46.5t-75 -33t-91.5 -15z" />
    <glyph glyph-name="CR" horiz-adv-x="500" 
 />
    <glyph glyph-name="acute.cap" horiz-adv-x="554" 
d="M457 842q0 -32 -38 -46q-49 -21 -279 -56l-19 54q27 12 77 34t79 35q83 37 140 70q11 -16 25.5 -46.5t14.5 -44.5z" />
    <glyph glyph-name="grave.cap" horiz-adv-x="565" 
d="M192 905q31 0 112 -35.5t164 -81.5l-22 -53q-97 23 -325 67q31 103 71 103z" />
    <glyph glyph-name="tilde.cap" horiz-adv-x="638" 
d="M425 761q-22 0 -90.5 14.5t-91.5 14.5q-42 0 -68 -37l-54 14q14 137 123 137q22 0 91 -14.5t92.5 -14.5t34.5 6t24 24l55 -12q-14 -132 -116 -132z" />
    <glyph glyph-name="dieresis.cap" horiz-adv-x="612" 
d="M142 777q-21 20 -21 51.5t26 53t63 21.5t57.5 -17.5t20.5 -49.5t-25.5 -55.5t-62.5 -23.5t-58 20zM369 777q-21 20 -21 51.5t26 53t63 21.5t57.5 -17.5t20.5 -49.5t-25.5 -55.5t-62.5 -23.5t-58 20z" />
    <glyph glyph-name="circumflex.cap" horiz-adv-x="644" 
d="M270 875q87 44 117.5 44t83 -53t76.5 -88l-39 -37q-109 45 -154 59q-71 -14 -204 -61l-29 48q62 44 149 88z" />
    <glyph glyph-name="caron.cap" horiz-adv-x="644" 
d="M398 788q-87 -44 -117.5 -44t-83 53t-76.5 88l39 37q109 -45 154 -59q71 14 204 61l29 -48q-62 -44 -149 -88z" />
    <glyph glyph-name="ring.cap" horiz-adv-x="449" 
d="M152 768q-31 29 -31 72.5t30.5 72t85 28.5t85 -28.5t30.5 -72t-30 -72.5t-84.5 -29t-85.5 29zM205.5 867.5q-11.5 -10.5 -11.5 -27t11.5 -27t31 -10.5t29.5 10.5t10 26.5q0 38 -39 38q-20 0 -31.5 -10.5z" />
    <glyph glyph-name="dotaccentcmb.cap" horiz-adv-x="388" 
d="M141.5 773q-20.5 20 -20.5 53.5t27.5 57t65 23.5t57.5 -19.5t20 -53t-27 -57.5t-64.5 -24t-58 20z" />
    <glyph glyph-name="commaaccent" horiz-adv-x="408" 
d="M311 -104q0 -84 -101 -173l-51 25q20 44 25 84l-63 55q12 31 36.5 60t45.5 33q40 0 74 -25t34 -59z" />
    <glyph glyph-name="foundryicon" horiz-adv-x="140" 
 />
    </font>
</defs>
</svg>
